<?xml version="1.0" standalone="no"?>
<!DOCTYPE svg PUBLIC "-//W3C//DTD SVG 1.1//EN" "http://www.w3.org/Graphics/SVG/1.1/DTD/svg11.dtd" >
<svg xmlns="http://www.w3.org/2000/svg" xmlns:xlink="http://www.w3.org/1999/xlink" version="1.1">
<metadata>
Created by FontForge 20170731 at Fri Mar 02 16:21:34 2018
 By Thomas
(c) 2013-2018 by Thomas Richter (thomas-richter@aon.at)
</metadata>
<defs>
<font id="Ekmelos" horiz-adv-x="280" >
  <font-face 
    font-family="Ekmelos"
    font-weight="500"
    font-stretch="normal"
    units-per-em="1000"
    panose-1="2 0 5 3 0 0 0 0 0 0"
    ascent="800"
    descent="-200"
    x-height="142"
    bbox="-107 -875 797 1098"
    underline-thickness="50"
    underline-position="-100"
    unicode-range="U+0020-1D16F"
  />
    <missing-glyph />
    <glyph glyph-name="space" unicode=" " horiz-adv-x="155" 
 />
    <glyph glyph-name="exclam" unicode="!" horiz-adv-x="153" 
d="M50 -127c0 15 11 27 26 27s27 -12 27 -27s-12 -26 -27 -26s-26 11 -26 26zM103 -33c0 -15 -12 -27 -26 -27c-15 0 -27 12 -27 27l-10 365c0 18 22 20 37 20c14 0 36 -2 36 -20z" />
    <glyph glyph-name="quotedbl" unicode="&#x22;" horiz-adv-x="222" 
d="M192 327v-75c0 -14 -14 -25 -27 -25s-27 11 -27 25v75c0 14 14 25 27 25s27 -11 27 -25zM84 327v-75c0 -14 -14 -25 -27 -25s-27 11 -27 25v75c0 14 14 25 27 25s27 -11 27 -25z" />
    <glyph glyph-name="numbersign" unicode="#" horiz-adv-x="344" 
d="M43 71c-12 0 -23 10 -23 19v4l13 48c2 7 8 11 17 11h43v112c0 8 8 16 18 16s19 -8 19 -16v-112h83v112c0 8 9 16 19 16s18 -8 18 -16v-112h50c12 0 24 -10 24 -19c0 -1 0 -3 -1 -4l-13 -48c-2 -7 -8 -11 -17 -11h-43v-142h50c13 0 24 -9 24 -19c0 -1 0 -3 -1 -4l-13 -48
c-2 -7 -7 -11 -16 -11h-44v-112c0 -8 -8 -16 -18 -16s-19 8 -19 16v112h-83v-112c0 -8 -9 -16 -19 -16s-18 8 -18 16v112h-50c-12 0 -23 10 -23 20v3l13 48c2 7 8 11 17 11h43v142h-50zM130 -71h83v142h-83v-142z" />
    <glyph glyph-name="quotesingle" unicode="'" horiz-adv-x="134" 
d="M94 327v-75c0 -14 -14 -25 -27 -25s-27 11 -27 25v75c0 14 14 25 27 25s27 -11 27 -25z" />
    <glyph glyph-name="parenleft" unicode="(" horiz-adv-x="153" 
d="M75 0c0 -82 6 -173 55 -243c2 -2 3 -5 3 -7c0 -7 -6 -13 -13 -13c-4 0 -7 2 -10 6c-53 76 -90 164 -90 257s37 181 90 257c3 4 6 6 10 6c7 0 13 -6 13 -13c0 -2 -1 -5 -3 -7c-49 -70 -55 -161 -55 -243z" />
    <glyph glyph-name="parenright" unicode=")" horiz-adv-x="153" 
d="M78 0c0 82 -6 173 -55 243c-2 2 -3 5 -3 7c0 7 6 13 13 13c4 0 7 -2 10 -6c53 -76 90 -164 90 -257s-37 -181 -90 -257c-3 -4 -6 -6 -10 -6c-7 0 -13 6 -13 13c0 2 1 5 3 7c49 70 55 161 55 243z" />
    <glyph glyph-name="asterisk" unicode="*" horiz-adv-x="323" 
d="M93 -142c-16 0 -24 15 -24 31c0 8 3 16 7 24l33 57h-52c-20 0 -37 15 -37 30s17 30 37 30h52l-33 57c-4 8 -7 16 -7 24c0 16 8 31 24 31c12 0 27 -10 35 -25l33 -57l34 58c8 14 23 24 35 24c16 0 24 -15 24 -31c0 -7 -3 -15 -7 -23l-34 -58h54c19 0 36 -15 36 -30
s-17 -30 -36 -30h-54l34 -58c4 -8 7 -16 7 -23c0 -16 -8 -31 -24 -31c-12 0 -27 10 -35 24l-34 58l-33 -57c-8 -15 -23 -25 -35 -25z" />
    <glyph glyph-name="plus" unicode="+" horiz-adv-x="323" 
d="M57 -40c-20 0 -37 20 -37 40s17 40 37 40h65v64c0 20 20 38 40 38s40 -18 40 -38v-64h65c19 0 36 -20 36 -40s-17 -40 -36 -40h-65v-66c0 -18 -20 -36 -40 -36s-40 18 -40 36v66h-65z" />
    <glyph glyph-name="comma" unicode="," horiz-adv-x="155" 
d="M77 -264c-3 -6 -7 -8 -12 -8c-8 0 -16 6 -16 14c0 2 1 4 2 6c17 37 35 73 35 101c0 18 -7 32 -28 39c-23 8 -38 30 -38 54c0 32 25 58 57 58s58 -26 58 -58c0 -72 -27 -141 -58 -206z" />
    <glyph glyph-name="hyphen" unicode="-" horiz-adv-x="323" 
d="M57 -40c-20 0 -37 20 -37 40s17 40 37 40h210c19 0 36 -20 36 -40s-17 -40 -36 -40h-210z" />
    <glyph glyph-name="period" unicode="." horiz-adv-x="155" 
d="M20 -58c0 32 25 58 57 58s58 -26 58 -58s-26 -57 -58 -57s-57 25 -57 57z" />
    <glyph glyph-name="slash" unicode="/" horiz-adv-x="256" 
d="M210 252c16 0 26 -13 26 -27c0 -3 0 -6 -1 -9l-163 -450c-4 -11 -15 -18 -26 -18c-16 0 -26 14 -26 27c0 3 1 6 2 9l163 450c4 11 14 18 25 18z" />
    <glyph glyph-name="colon" unicode=":" horiz-adv-x="132" 
d="M20 -83c0 26 19 46 45 46s47 -20 47 -46s-21 -46 -47 -46s-45 20 -45 46zM20 83c0 26 19 46 45 46s47 -20 47 -46s-21 -46 -47 -46s-45 20 -45 46z" />
    <glyph glyph-name="semicolon" unicode=";" horiz-adv-x="132" 
d="M65 -248c-2 -5 -5 -7 -9 -7c-6 0 -13 5 -13 11c0 2 0 3 1 5c14 30 28 59 28 81c0 14 -5 25 -22 31c-18 6 -30 24 -30 43c0 26 19 47 45 47s47 -21 47 -47c0 -58 -22 -112 -47 -164zM20 83c0 26 19 46 45 46s47 -20 47 -46s-21 -46 -47 -46s-45 20 -45 46z" />
    <glyph glyph-name="less" unicode="&#x3c;" horiz-adv-x="254" 
d="M178 80c-5 -8 -58 -58 -58 -80s53 -72 58 -80c9 -12 56 -66 56 -89c0 -8 -10 -30 -16 -30c-2 0 -3 1 -4 2c-63 63 -128 137 -190 187c-2 2 -4 6 -4 10s2 8 4 10c62 50 127 124 190 187c1 1 2 2 4 2c6 0 16 -22 16 -30c0 -23 -47 -77 -56 -89z" />
    <glyph glyph-name="equal" unicode="=" horiz-adv-x="303" 
d="M47 37c-15 0 -27 12 -27 27s12 27 27 27h210c14 0 26 -12 26 -27s-12 -27 -26 -27h-210zM47 -91c-15 0 -27 12 -27 27s12 27 27 27h210c14 0 26 -12 26 -27s-12 -27 -26 -27h-210z" />
    <glyph glyph-name="greater" unicode="&#x3e;" horiz-adv-x="254" 
d="M76 80c-9 12 -56 66 -56 89c0 8 10 30 16 30c2 0 3 -1 4 -2c63 -63 128 -137 190 -187c2 -2 4 -6 4 -10s-2 -8 -4 -10c-62 -50 -127 -124 -190 -187c-1 -1 -2 -2 -4 -2c-6 0 -16 22 -16 30c0 23 47 77 56 89c5 8 58 58 58 80s-53 72 -58 80z" />
    <glyph glyph-name="bracketleft" unicode="[" horiz-adv-x="217" 
d="M53 -179h117c8 0 13 -4 15 -10l11 -41c1 -2 1 -5 1 -6c0 -8 -10 -17 -21 -17h-123h-17c-9 0 -16 8 -16 15v476c0 7 7 15 16 15h17h123c11 0 21 -9 21 -17c0 -1 0 -4 -1 -6l-11 -41c-2 -6 -7 -10 -15 -10h-117v-358z" />
    <glyph glyph-name="backslash" unicode="\" horiz-adv-x="256" 
d="M46 252c11 0 21 -7 25 -18l163 -450c1 -3 2 -6 2 -9c0 -13 -10 -27 -26 -27c-11 0 -22 7 -26 18l-163 450c-1 3 -1 6 -1 9c0 14 10 27 26 27z" />
    <glyph glyph-name="bracketright" unicode="]" horiz-adv-x="217" 
d="M164 -179v358h-117c-8 0 -13 4 -15 10l-11 41c-1 2 -1 5 -1 6c0 8 10 17 21 17h123h17c9 0 16 -8 16 -15v-476c0 -7 -7 -15 -16 -15h-17h-123c-11 0 -21 9 -21 17c0 1 0 4 1 6l11 41c2 6 7 10 15 10h117z" />
    <glyph glyph-name="asciicircum" unicode="^" horiz-adv-x="346" 
d="M172 56c-23 0 -88 -119 -124 -119c-8 0 -28 11 -28 17c0 2 2 4 3 5c59 66 92 131 139 201c2 3 6 5 10 5c5 0 9 -2 11 -5c46 -71 82 -135 141 -201c0 -1 2 -3 2 -5c0 -6 -17 -17 -26 -17c-36 0 -103 119 -128 119z" />
    <glyph glyph-name="underscore" unicode="_" horiz-adv-x="370" 
d="M47 -153c-15 0 -27 12 -27 27s12 27 27 27h277c14 0 26 -12 26 -27s-12 -27 -26 -27h-277z" />
    <glyph glyph-name="a" unicode="a" 
d="M85 33h121v34c0 36 -16 51 -59 51c-44 0 -70 0 -77 -20c-9 -29 -11 -40 -29 -40c-16 0 -21 11 -21 40c0 34 41 72 94 72h53c51 0 93 -50 93 -102v-196c0 -14 -14 -25 -27 -25s-27 11 -27 25v13c-17 -23 -43 -38 -78 -38h-14c-58 0 -94 51 -94 87c0 31 12 99 65 99z
M206 -48v31h-109c-16 0 -21 -27 -21 -45s9 -39 33 -39h35c32 0 62 22 62 53z" />
    <glyph glyph-name="b" unicode="b" 
d="M196 9c0 63 -20 116 -65 116c-27 0 -57 -22 -57 -53v-124c0 -31 29 -50 52 -50c52 0 70 49 70 111zM74 -119c0 -19 -14 -34 -27 -34s-27 11 -27 25v472c8 5 18 8 27 8s19 -3 27 -8v-205c17 23 43 38 78 38c51 0 108 -53 108 -168c0 -112 -64 -162 -118 -162
c-33 0 -43 13 -68 34z" />
    <glyph glyph-name="c" unicode="c" 
d="M74 67v-117c0 -36 16 -51 59 -51c44 0 71 2 77 20c11 31 11 40 29 40c16 0 21 -21 21 -52c0 -26 -41 -60 -94 -60h-53c-51 0 -93 50 -93 102v119c0 52 42 102 93 102h53c53 0 94 -34 94 -60c0 -31 -5 -52 -21 -52c-18 0 -18 9 -29 40c-6 18 -33 20 -77 20
c-43 0 -59 -15 -59 -51z" />
    <glyph glyph-name="d" unicode="d" 
d="M84 9c0 -62 18 -111 70 -111c23 0 52 19 52 50v124c0 31 -30 53 -57 53c-45 0 -65 -53 -65 -116zM206 -119c-25 -21 -35 -34 -68 -34c-54 0 -118 50 -118 162c0 115 57 168 108 168c35 0 61 -15 78 -38v205c8 5 18 8 27 8s19 -3 27 -8v-472c0 -14 -14 -25 -27 -25
s-27 15 -27 34z" />
    <glyph glyph-name="e" unicode="e" 
d="M118 118c-43 0 -44 -48 -44 -84h109c16 0 21 27 21 45s-9 39 -33 39h-53zM195 -16h-121v-34c0 -36 16 -51 59 -51c44 0 71 2 77 20c11 31 11 40 29 40c16 0 21 -21 21 -52c0 -26 -41 -60 -94 -60h-53c-51 0 -93 50 -93 102v119c0 52 37 102 93 102h53c58 0 94 -51 94 -87
c0 -31 -12 -99 -65 -99z" />
    <glyph glyph-name="f" unicode="f" 
d="M20 300c0 27 28 52 54 52h92c58 0 94 -51 94 -87c0 -31 -5 -60 -21 -60c-18 0 -18 22 -29 53c-11 33 -33 42 -77 42c-43 0 -59 -15 -59 -51v-79h113c5 -8 8 -16 8 -25s-3 -17 -8 -25h-113v-265c-8 -5 -18 -8 -27 -8s-19 3 -27 8v445z" />
    <glyph glyph-name="g" unicode="g" 
d="M84 15c0 -63 20 -116 65 -116c27 0 57 22 57 53v124c0 31 -29 50 -52 50c-52 0 -70 -49 -70 -111zM206 -224v109c-17 -23 -43 -38 -78 -38c-51 0 -108 53 -108 168c0 112 64 162 118 162c33 0 43 -14 68 -35c0 19 14 35 27 35s27 -11 27 -25v-376
c0 -54 -42 -104 -93 -104h-53c-53 0 -94 34 -94 60c0 31 5 52 21 52c18 0 18 -9 29 -40c6 -18 33 -20 77 -20c43 0 59 22 59 52z" />
    <glyph glyph-name="h" unicode="h" 
d="M206 9c0 73 -25 116 -70 116c-32 0 -62 -22 -62 -53v-200c0 -14 -14 -25 -27 -25s-27 11 -27 25v472c8 5 18 8 27 8s19 -3 27 -8v-205c17 23 43 38 78 38c51 0 108 -53 108 -168v-137c0 -14 -14 -25 -27 -25s-27 11 -27 25v137z" />
    <glyph glyph-name="i" unicode="i" horiz-adv-x="188" 
d="M53 294c0 32 25 58 57 58s58 -26 58 -58s-26 -57 -58 -57s-57 25 -57 57zM114 -128v255h-86c-5 8 -8 16 -8 25s3 17 8 25h113c13 0 27 -11 27 -25v-280c0 -14 -14 -25 -27 -25s-27 11 -27 25z" />
    <glyph glyph-name="j" unicode="j" 
d="M145 294c0 32 25 58 57 58s58 -26 58 -58s-26 -57 -58 -57s-57 25 -57 57zM206 127h-86c-5 8 -8 16 -8 25s3 17 8 25h113c13 0 27 -11 27 -25v-376c0 -54 -42 -104 -93 -104h-53c-53 0 -94 34 -94 60c0 31 5 52 21 52c18 0 18 -9 29 -40c6 -18 33 -20 77 -20
c43 0 59 22 59 52v351z" />
    <glyph glyph-name="k" unicode="k" 
d="M260 -125c0 -15 -12 -28 -28 -28c-8 0 -16 4 -21 10l-115 163l-22 -16v-132c0 -14 -14 -25 -27 -25s-27 11 -27 25v472c8 5 18 8 27 8s19 -3 27 -8v-274l146 103c4 3 8 4 13 4c15 0 27 -11 27 -28c0 -8 -3 -15 -9 -20l-110 -78l115 -163c3 -4 4 -8 4 -13z" />
    <glyph glyph-name="l" unicode="l" horiz-adv-x="188" 
d="M114 -128v430h-86c-5 8 -8 16 -8 24c0 10 3 18 8 26h113c13 0 27 -12 27 -26v-454c0 -14 -14 -25 -27 -25s-27 11 -27 25z" />
    <glyph glyph-name="m" unicode="m" horiz-adv-x="416" 
d="M342 9c0 73 -15 116 -60 116c-32 0 -42 -22 -42 -53v-200c0 -14 -14 -25 -27 -25s-27 11 -27 25v137c0 73 -15 116 -60 116c-32 0 -52 -22 -52 -53v-200c0 -14 -14 -25 -27 -25s-27 11 -27 25v297c8 5 18 8 27 8s19 -3 27 -8v-30c17 23 33 38 68 38c26 0 51 -14 69 -42
c20 17 18 15 26 22c13 11 26 20 61 20c51 0 98 -53 98 -168v-137c0 -14 -14 -25 -27 -25s-27 11 -27 25v137z" />
    <glyph glyph-name="n" unicode="n" 
d="M206 9c0 73 -25 116 -70 116c-32 0 -62 -22 -62 -53v-200c0 -14 -14 -25 -27 -25s-27 11 -27 25v297c8 5 18 8 27 8s19 -3 27 -8v-30c17 23 43 38 78 38c51 0 108 -53 108 -168v-137c0 -14 -14 -25 -27 -25s-27 11 -27 25v137z" />
    <glyph glyph-name="o" unicode="o" 
d="M140 118c-45 0 -66 -10 -66 -51v-117c0 -41 21 -51 66 -51s66 10 66 51v117c0 41 -21 51 -66 51zM113 -153c-52 0 -93 34 -93 60v203c0 26 41 60 93 60h54c52 0 93 -34 93 -60v-203c0 -26 -41 -60 -93 -60h-54z" />
    <glyph glyph-name="p" unicode="p" 
d="M74 142c25 21 35 35 68 35c54 0 118 -50 118 -162c0 -115 -57 -168 -108 -168c-35 0 -61 15 -78 38v-188c0 -14 -14 -25 -27 -25s-27 11 -27 25v472c8 5 18 8 27 8s19 -3 27 -8v-27zM196 15c0 62 -18 111 -70 111c-23 0 -52 -19 -52 -50v-124c0 -31 30 -53 57 -53
c45 0 65 53 65 116z" />
    <glyph glyph-name="q" unicode="q" 
d="M206 142v27c8 5 18 8 27 8s19 -3 27 -8v-472c0 -14 -14 -25 -27 -25s-27 11 -27 25v188c-17 -23 -43 -38 -78 -38c-51 0 -108 53 -108 168c0 112 64 162 118 162c33 0 43 -14 68 -35zM84 15c0 -63 20 -116 65 -116c27 0 57 22 57 53v124c0 31 -29 50 -52 50
c-52 0 -70 -49 -70 -111z" />
    <glyph glyph-name="r" unicode="r" horiz-adv-x="226" 
d="M181 177c14 0 25 -13 25 -26s-11 -26 -25 -26h-35c-32 0 -72 -22 -72 -53v-200c0 -14 -14 -25 -27 -25s-27 11 -27 25v297c8 5 18 8 27 8s19 -3 27 -8v-30c17 23 43 38 78 38h29z" />
    <glyph glyph-name="s" unicode="s" 
d="M167 -153h-53c-53 0 -94 39 -94 60s5 30 21 30c15 0 18 -5 29 -18c12 -14 33 -20 77 -20h24c24 0 33 24 33 42s-10 49 -41 49h-48c-63 0 -95 65 -95 96c0 36 36 84 94 84h42c53 0 94 -39 94 -59c0 -21 -5 -29 -21 -29c-15 0 -18 3 -29 17c-12 16 -23 19 -67 19h-24
c-24 0 -33 -18 -33 -36s10 -42 36 -42h53c63 0 95 -67 95 -103s-36 -90 -93 -90z" />
    <glyph glyph-name="t" unicode="t" 
d="M74 -50c0 -36 16 -51 59 -51c44 0 66 9 77 42c11 31 11 53 29 53c16 0 21 -29 21 -60c0 -36 -36 -87 -94 -87h-92c-26 0 -54 25 -54 52v445c8 5 18 8 27 8s19 -3 27 -8v-174h113c5 -8 8 -16 8 -25s-3 -17 -8 -25h-113v-170z" />
    <glyph glyph-name="u" unicode="u" 
d="M20 15v154c8 5 18 8 27 8s19 -3 27 -8v-154c0 -73 25 -116 70 -116c32 0 62 22 62 53v217c8 5 18 8 27 8s19 -3 27 -8v-297c0 -14 -14 -25 -27 -25s-27 11 -27 25v13c-17 -23 -43 -38 -78 -38c-53 0 -108 51 -108 168z" />
    <glyph glyph-name="v" unicode="v" horiz-adv-x="343" 
d="M297 142c16 0 26 -15 26 -28c0 -4 -1 -8 -3 -12l-124 -239c-5 -9 -12 -16 -24 -16s-19 8 -24 17l-124 237c-2 4 -4 9 -4 13c0 13 9 28 25 28c9 0 21 -5 26 -14l101 -199l101 200c4 8 15 13 24 13z" />
    <glyph glyph-name="w" unicode="w" horiz-adv-x="416" 
d="M210 122c11 0 23 -9 25 -17l52 -176l59 200c3 9 15 13 24 13c16 0 26 -15 26 -28c0 -4 -2 -8 -3 -12l-82 -239c-3 -10 -12 -16 -24 -16s-21 8 -24 17l-53 162l-58 -163c-3 -10 -12 -16 -24 -16s-21 8 -24 17l-80 237c-1 4 -4 9 -4 13c0 13 9 28 25 28c9 0 23 -4 26 -14
l57 -199l59 177c2 7 13 16 23 16z" />
    <glyph glyph-name="x" unicode="x" horiz-adv-x="347" 
d="M53 -153c-20 0 -33 12 -33 32c0 14 7 30 18 41l79 80l-79 78c-12 12 -18 28 -18 42c0 20 12 33 32 33c14 0 31 -6 43 -18l78 -78l79 79c12 12 28 17 42 17c19 0 33 -13 33 -32c0 -14 -7 -31 -19 -43l-78 -78l80 -80c11 -11 17 -26 17 -40c0 -21 -12 -33 -33 -33
c-14 0 -30 6 -41 17l-80 79l-79 -79c-11 -11 -27 -17 -41 -17z" />
    <glyph glyph-name="y" unicode="y" 
d="M260 -224c0 -54 -42 -104 -93 -104h-53c-53 0 -94 34 -94 60c0 31 5 52 21 52c18 0 18 -9 29 -40c6 -18 33 -20 77 -20c43 0 59 22 59 52v109c-17 -23 -43 -38 -78 -38c-51 0 -108 53 -108 168v154c8 5 18 8 27 8s19 -3 27 -8v-154c0 -73 25 -116 70 -116
c32 0 62 22 62 53v217c8 5 18 8 27 8s19 -3 27 -8v-393z" />
    <glyph glyph-name="z" unicode="z" 
d="M50 -153c-16 0 -30 13 -30 27c0 4 1 9 4 13l157 229h-136c-14 0 -25 14 -25 27s11 27 25 27h186c16 0 29 -15 29 -27c0 -4 -1 -9 -4 -13l-157 -229h136c14 0 25 -14 25 -27s-11 -27 -25 -27h-185z" />
    <glyph glyph-name="braceleft" unicode="{" horiz-adv-x="217" 
d="M20 0c46 23 60 56 60 105v74c0 57 74 74 104 74c10 0 13 -2 13 -11c0 -7 -72 -3 -72 -105c0 -80 -2 -114 -45 -137c43 -23 45 -57 45 -137c0 -102 72 -98 72 -105c0 -9 -3 -11 -13 -11c-30 0 -104 17 -104 74v74c0 49 -14 82 -60 105z" />
    <glyph glyph-name="bar" unicode="|" horiz-adv-x="133" 
d="M93 -225c0 -15 -12 -27 -26 -27c-15 0 -27 12 -27 27v450c0 15 12 27 27 27c14 0 26 -12 26 -27v-450z" />
    <glyph glyph-name="braceright" unicode="}" horiz-adv-x="217" 
d="M197 0c-46 -23 -60 -56 -60 -105v-74c0 -57 -74 -74 -104 -74c-10 0 -13 2 -13 11c0 7 72 3 72 105c0 80 2 114 45 137c-43 23 -45 57 -45 137c0 102 -72 98 -72 105c0 9 3 11 13 11c30 0 104 -17 104 -74v-74c0 -49 14 -82 60 -105z" />
    <glyph glyph-name="asciitilde" unicode="~" horiz-adv-x="300" 
d="M150 124c9 -9 24 -25 51 -25c30 0 50 21 61 21s18 -1 18 -13c0 -10 -14 -24 -31 -37c-18 -13 -32 -25 -53 -25s-37 20 -46 28c-9 9 -24 26 -51 26c-30 0 -50 -21 -61 -21s-18 1 -18 13c0 10 14 24 31 37c18 13 32 25 53 25s37 -21 46 -29z" />
    <glyph glyph-name="staff5Lines" unicode="&#xe014;" horiz-adv-x="500" 
d="M500 -14h-500c-8 0 -14 6 -14 14s6 14 14 14h500c8 0 14 -6 14 -14s-6 -14 -14 -14zM500 986h-500c-8 0 -14 6 -14 14s6 14 14 14h500c8 0 14 -6 14 -14s-6 -14 -14 -14zM500 736h-500c-8 0 -14 6 -14 14s6 14 14 14h500c8 0 14 -6 14 -14s-6 -14 -14 -14zM500 486h-500
c-8 0 -14 6 -14 14s6 14 14 14h500c8 0 14 -6 14 -14s-6 -14 -14 -14zM500 236h-500c-8 0 -14 6 -14 14s6 14 14 14h500c8 0 14 -6 14 -14s-6 -14 -14 -14z" />
    <glyph glyph-name="staff5LinesWide" unicode="&#xe01a;" horiz-adv-x="750" 
d="M750 -14h-750c-8 0 -14 6 -14 14s6 14 14 14h750c8 0 14 -6 14 -14s-6 -14 -14 -14zM750 986h-750c-8 0 -14 6 -14 14s6 14 14 14h750c8 0 14 -6 14 -14s-6 -14 -14 -14zM750 736h-750c-8 0 -14 6 -14 14s6 14 14 14h750c8 0 14 -6 14 -14s-6 -14 -14 -14zM750 486h-750
c-8 0 -14 6 -14 14s6 14 14 14h750c8 0 14 -6 14 -14s-6 -14 -14 -14zM750 236h-750c-8 0 -14 6 -14 14s6 14 14 14h750c8 0 14 -6 14 -14s-6 -14 -14 -14z" />
    <glyph glyph-name="staff5LinesNarrow" unicode="&#xe020;" horiz-adv-x="250" 
d="M250 -14h-250c-8 0 -14 6 -14 14s6 14 14 14h250c8 0 14 -6 14 -14s-6 -14 -14 -14zM250 986h-250c-8 0 -14 6 -14 14s6 14 14 14h250c8 0 14 -6 14 -14s-6 -14 -14 -14zM250 736h-250c-8 0 -14 6 -14 14s6 14 14 14h250c8 0 14 -6 14 -14s-6 -14 -14 -14zM250 486h-250
c-8 0 -14 6 -14 14s6 14 14 14h250c8 0 14 -6 14 -14s-6 -14 -14 -14zM250 236h-250c-8 0 -14 6 -14 14s6 14 14 14h250c8 0 14 -6 14 -14s-6 -14 -14 -14z" />
    <glyph glyph-name="legerLine" unicode="&#xe022;" horiz-adv-x="332" 
d="M384 -28h-436c-15 0 -28 13 -28 28s13 28 28 28h436c15 0 28 -13 28 -28s-13 -28 -28 -28z" />
    <glyph glyph-name="legerLineWide" unicode="&#xe023;" horiz-adv-x="532" 
d="M584 -28h-636c-15 0 -28 13 -28 28s13 28 28 28h636c15 0 28 -13 28 -28s-13 -28 -28 -28z" />
    <glyph glyph-name="barlineSingle" unicode="&#xe030;" horiz-adv-x="47" 
d="M0 1000c0 8 6 14 14 14h19c8 0 14 -6 14 -14v-1000c0 -8 -6 -14 -14 -14h-19c-8 0 -14 6 -14 14v1000z" />
    <glyph glyph-name="barlineDouble" unicode="&#xe031;" horiz-adv-x="170" 
d="M47 1014v-1028h-33c-8 0 -14 6 -14 14v1000c0 8 6 14 14 14h33zM123 1014h33c8 0 14 -6 14 -14v-1000c0 -8 -6 -14 -14 -14h-33v1028z" />
    <glyph glyph-name="barlineFinal" unicode="&#xe032;" horiz-adv-x="270" 
d="M47 1014v-1028h-33c-8 0 -14 6 -14 14v1000c0 8 6 14 14 14h33zM123 1014h133c8 0 14 -6 14 -14v-1000c0 -8 -6 -14 -14 -14h-133v1028z" />
    <glyph glyph-name="gClef" unicode="&#xe050;" horiz-adv-x="625" 
d="M288 688c0 -4 5 -99 15 -99c0 0 63 72 80 97c47 69 66 114 66 176c0 53 -19 79 -45 79c-64 0 -116 -141 -116 -253zM457 -185c44 22 83 83 83 143c0 56 -38 171 -149 171zM331 235l-28 151c-39 -33 -124 -108 -155 -146c-54 -67 -70 -152 -70 -198
c0 -139 82 -256 257 -256c47 0 71 8 82 13l-66 326c-53 -23 -87 -68 -87 -125c0 -46 27 -89 56 -114c6 -5 16 -10 16 -17c0 -6 -2 -10 -10 -10c-7 0 -31 13 -38 18c-51 32 -99 77 -99 167c0 82 57 151 142 191zM333 413l34 -168s31 3 57 3c104 0 201 -95 201 -248
c0 -85 -47 -193 -156 -227c11 -62 33 -192 33 -249c0 -150 -108 -186 -166 -186c-130 0 -202 73 -202 141c0 94 62 135 113 135c53 0 92 -38 92 -93c0 -60 -49 -89 -94 -89c0 -26 22 -55 78 -55c70 0 138 51 138 138c0 47 -26 174 -38 241c-14 -4 -45 -9 -87 -9
c-194 0 -336 166 -336 340c0 107 32 199 102 285c52 64 63 74 90 104c5 6 73 74 78 80c-6 34 -32 182 -32 240c0 104 21 176 76 256c17 24 46 46 70 46c32 0 64 -41 77 -73c19 -50 34 -113 34 -225c0 -129 -41 -244 -100 -317c-26 -32 -40 -46 -62 -70z" />
    <glyph glyph-name="cClef" unicode="&#xe05c;" horiz-adv-x="690" 
d="M347 0c0 -39 11 -85 36 -85c10 0 19 11 35 16c20 7 47 11 88 11c107 0 184 -110 184 -234c0 -181 -155 -213 -236 -213c-140 0 -173 94 -173 154c0 52 35 90 88 90c40 0 78 -36 78 -93c0 -28 -21 -45 -43 -55c-13 -6 -38 -13 -38 -25c0 -21 42 -25 64 -25
c120 0 136 60 136 187c0 100 -37 171 -93 171c-49 0 -106 -73 -137 -104c-13 103 -61 178 -96 178c-8 0 -16 -5 -16 -5v-468h-39v1000h39v-468s8 -5 16 -5c35 0 83 75 96 178c31 -31 88 -104 137 -104c56 0 93 71 93 171c0 127 -16 187 -136 187c-22 0 -64 -4 -64 -25
c0 -12 25 -19 38 -25c22 -10 43 -27 43 -55c0 -57 -38 -93 -78 -93c-53 0 -88 38 -88 90c0 60 33 154 173 154c81 0 236 -32 236 -213c0 -124 -77 -234 -184 -234c-41 0 -68 4 -88 11c-16 5 -25 16 -35 16c-25 0 -36 -45 -36 -85zM0 -500v1000h123v-1000h-123z" />
    <glyph glyph-name="fClef" unicode="&#xe062;" horiz-adv-x="719" 
d="M252 252c178 0 285 -99 285 -290c0 -142 -79 -257 -160 -347c-87 -97 -265 -185 -337 -185c-32 0 -36 13 -36 24c126 42 183 89 257 180c85 103 147 263 147 366c0 142 -87 221 -185 221c-85 0 -167 -73 -167 -138c0 -6 2 -10 5 -15c9 10 35 30 67 30c46 0 82 -32 82 -93
c0 -48 -36 -102 -107 -102c-70 0 -103 74 -103 142c0 101 82 207 252 207zM665 -71c31 0 54 -23 54 -54s-23 -54 -54 -54s-54 23 -54 54s23 54 54 54zM664 180c31 0 55 -24 55 -55s-24 -55 -55 -55s-55 24 -55 55s24 55 55 55z" />
    <glyph glyph-name="noteheadWhole" unicode="&#xe0a2;" horiz-adv-x="420" 
d="M237 -103c49 0 77 23 77 71c0 60 -55 135 -124 135c-49 0 -77 -23 -77 -71c0 -60 55 -135 124 -135zM216 125c93 0 204 -52 204 -125c0 -68 -50 -125 -214 -125c-149 0 -206 56 -206 125c0 70 83 125 216 125z" />
    <glyph glyph-name="noteheadHalf" unicode="&#xe0a3;" horiz-adv-x="295" 
d="M29 -45c0 -15 14 -42 46 -42c22 0 53 11 98 41c70 46 91 72 91 91c0 16 -14 42 -46 42c-22 0 -53 -11 -98 -41c-70 -46 -91 -71 -91 -91zM97 -125c-55 0 -97 30 -97 83c0 52 47 167 196 167c58 0 99 -32 99 -83c0 -33 -33 -167 -198 -167z" />
    <glyph glyph-name="noteheadBlack" unicode="&#xe0a4;" horiz-adv-x="295" 
d="M97 -125c-54 0 -97 31 -97 83c0 86 88 167 198 167c57 0 97 -32 97 -83c0 -85 -109 -167 -198 -167z" />
    <glyph glyph-name="noteDoubleWhole" unicode="&#xe1d0;" horiz-adv-x="525" 
d="M-37 143c0 9 6 17 18 17s17 -8 17 -17v-286c0 -9 -5 -17 -17 -17s-18 8 -18 17v286zM-107 143c0 9 6 17 18 17s17 -8 17 -17v-286c0 -9 -5 -17 -17 -17s-18 8 -18 17v286zM490 143c0 9 6 17 18 17s17 -8 17 -17v-286c0 -9 -5 -17 -17 -17s-18 8 -18 17v286zM422 143
c0 9 6 17 18 17s17 -8 17 -17v-286c0 -9 -5 -17 -17 -17s-18 8 -18 17v286zM237 -103c49 0 77 23 77 71c0 60 -55 135 -124 135c-49 0 -77 -23 -77 -71c0 -60 55 -135 124 -135zM216 125c93 0 204 -52 204 -125c0 -68 -50 -125 -214 -125c-149 0 -206 56 -206 125
c0 70 83 125 216 125z" />
    <glyph glyph-name="noteDoubleWholeSquare" unicode="&#xe1d1;" horiz-adv-x="420" 
d="M58 -42h304c17 0 23 11 23 31v22c0 20 -6 31 -23 31h-304c-17 0 -23 -11 -23 -31v-22c0 -20 6 -31 23 -31zM362 -125h-304c-17 0 -23 -9 -23 -30c0 -12 -8 -18 -17 -18s-18 6 -18 18v310c0 12 9 18 18 18s17 -6 17 -18c0 -21 6 -30 23 -30h304c17 0 23 9 23 30
c0 12 8 18 17 18s18 -6 18 -18v-310c0 -12 -9 -18 -18 -18s-17 6 -17 18c0 21 -6 30 -23 30z" />
    <glyph glyph-name="noteHalfUp" unicode="&#xe1d3;" horiz-adv-x="295" 
d="M29 -45c0 -15 14 -42 46 -42c22 0 53 11 98 41c70 46 91 72 91 91c0 16 -14 42 -46 42c-22 0 -53 -11 -98 -41c-70 -46 -91 -71 -91 -91zM97 -125c-55 0 -97 30 -97 83c0 52 47 167 196 167c28 0 52 -7 69 -21v754c0 9 3 17 15 17s15 -8 15 -17v-816
c0 -33 -33 -167 -198 -167z" />
    <glyph glyph-name="noteHalfDown" unicode="&#xe1d4;" horiz-adv-x="295" 
d="M30 -858c0 -9 -3 -17 -15 -17s-15 8 -15 17v816c0 52 47 167 196 167c58 0 99 -32 99 -83c0 -33 -33 -167 -198 -167c-26 0 -50 7 -67 20v-753zM29 -45c0 -15 14 -42 46 -42c22 0 53 11 98 41c70 46 91 72 91 91c0 16 -14 42 -46 42c-22 0 -53 -11 -98 -41
c-70 -46 -91 -71 -91 -91z" />
    <glyph glyph-name="noteQuarterUp" unicode="&#xe1d5;" horiz-adv-x="295" 
d="M97 -125c-54 0 -97 31 -97 83c0 86 88 167 198 167c27 0 50 -7 67 -20v753c0 9 3 17 15 17s15 -8 15 -17v-816c0 -85 -109 -167 -198 -167z" />
    <glyph glyph-name="noteQuarterDown" unicode="&#xe1d6;" horiz-adv-x="295" 
d="M30 -858c0 -9 -3 -17 -15 -17s-15 8 -15 17v816c0 86 88 167 198 167c57 0 97 -32 97 -83c0 -85 -109 -167 -198 -167c-26 0 -50 7 -67 21v-754z" />
    <glyph glyph-name="note8thUp" unicode="&#xe1d7;" horiz-adv-x="504" 
d="M97 -125c-54 0 -97 31 -97 83c0 86 88 167 198 167c27 0 50 -7 67 -20v753c0 9 3 17 15 17s15 -8 15 -17c0 -197 209 -335 209 -532c0 -71 -16 -141 -42 -207c-5 -8 -12 -12 -24 -12c-11 0 -17 10 -17 29c0 18 39 76 39 190c0 103 -94 207 -165 282v-566
c0 -85 -109 -167 -198 -167z" />
    <glyph glyph-name="note8thDown" unicode="&#xe1d8;" horiz-adv-x="295" 
d="M30 -608c71 75 165 179 165 282c0 114 -39 172 -39 190c0 11 2 19 6 24c-22 -8 -44 -13 -65 -13c-26 0 -50 7 -67 21v-504zM175 -107c11 0 17 -4 22 -12c26 -66 42 -136 42 -207c0 -197 -209 -335 -209 -532c0 -9 -3 -17 -15 -17s-15 8 -15 17v156v94v566
c0 86 88 167 198 167c57 0 97 -32 97 -83c0 -61 -56 -120 -120 -149z" />
    <glyph glyph-name="note16thUp" unicode="&#xe1d9;" horiz-adv-x="504" 
d="M97 -125c-54 0 -97 31 -97 83c0 86 88 167 198 167c27 0 50 -7 67 -20v753c0 9 3 17 15 17s15 -8 15 -17c0 -157 209 -131 209 -338c0 -37 -10 -73 -21 -109c13 -26 21 -57 21 -95c0 -71 -16 -131 -42 -197c-5 -8 -12 -12 -24 -12c-11 0 -17 10 -17 29c0 18 39 66 39 180
c0 93 -99 168 -165 168v-442c0 -85 -109 -167 -198 -167zM449 460c5 18 11 38 11 60c0 93 -99 138 -165 138c0 -101 92 -132 154 -198z" />
    <glyph glyph-name="note16thDown" unicode="&#xe1da;" horiz-adv-x="295" 
d="M15 -875c-12 0 -15 8 -15 17v816c0 86 88 167 198 167c57 0 97 -32 97 -83c0 -61 -56 -120 -120 -149c11 0 17 -4 22 -12c26 -66 42 -126 42 -197c0 -38 -8 -69 -21 -95c11 -36 21 -72 21 -109c0 -207 -209 -181 -209 -338c0 -9 -3 -17 -15 -17zM162 -112
c-22 -8 -44 -13 -65 -13c-26 0 -50 7 -67 21v-380c66 0 165 75 165 168c0 114 -39 162 -39 180c0 11 2 19 6 24zM30 -658c66 0 165 45 165 138c0 22 -6 42 -11 60c-62 -66 -154 -97 -154 -198z" />
    <glyph glyph-name="augmentationDot" unicode="&#xe1e7;" horiz-adv-x="110" 
d="M0 0c0 31 24 55 55 55s55 -24 55 -55s-24 -55 -55 -55s-55 24 -55 55z" />
    <glyph glyph-name="flag8thUp" unicode="&#xe240;" horiz-adv-x="239" 
d="M0 -17c0 9 3 17 15 17s15 -8 15 -17c0 -197 209 -335 209 -532c0 -71 -16 -141 -42 -207c-5 -8 -12 -12 -24 -12c-11 0 -17 10 -17 29c0 18 39 76 39 190c0 103 -94 207 -165 282h-30v250z" />
    <glyph glyph-name="flag8thDown" unicode="&#xe241;" horiz-adv-x="239" 
d="M0 17v250h30c71 75 165 179 165 282c0 114 -39 172 -39 190c0 19 6 29 17 29c12 0 19 -4 24 -12c26 -66 42 -136 42 -207c0 -197 -209 -335 -209 -532c0 -9 -3 -17 -15 -17s-15 8 -15 17z" />
    <glyph glyph-name="flag16thUp" unicode="&#xe242;" horiz-adv-x="239" 
d="M184 -415c5 18 11 38 11 60c0 93 -99 138 -165 138c0 -101 92 -132 154 -198zM0 -17c0 9 3 17 15 17s15 -8 15 -17c0 -157 209 -131 209 -338c0 -37 -10 -73 -21 -109c13 -26 21 -57 21 -95c0 -71 -16 -131 -42 -197c-5 -8 -12 -12 -24 -12c-11 0 -17 10 -17 29
c0 18 39 66 39 180c0 93 -99 168 -165 168h-30v374z" />
    <glyph glyph-name="flag16thDown" unicode="&#xe243;" horiz-adv-x="239" 
d="M184 415c-62 -66 -154 -97 -154 -198c66 0 165 45 165 138c0 22 -6 42 -11 60zM0 17v374h30c66 0 165 75 165 168c0 114 -39 162 -39 180c0 19 6 29 17 29c12 0 19 -4 24 -12c26 -66 42 -126 42 -197c0 -38 -8 -69 -21 -95c11 -36 21 -72 21 -109
c0 -207 -209 -181 -209 -338c0 -9 -3 -17 -15 -17s-15 8 -15 17z" />
    <glyph glyph-name="accidentalFlat" unicode="&#xe260;" horiz-adv-x="267" 
d="M74 41l-1 -66v-11c0 -22 1 -44 4 -66c45 38 93 80 93 139c0 33 -14 67 -43 67c-31 0 -53 -30 -53 -63zM32 -138l-12 595c8 5 18 8 27 8s19 -3 27 -8l-7 -345c25 21 58 34 91 34c52 0 89 -48 89 -102c0 -80 -86 -117 -147 -169c-15 -13 -24 -38 -45 -38
c-13 0 -23 11 -23 25z" />
    <glyph glyph-name="accidentalNatural" unicode="&#xe261;" horiz-adv-x="232" 
d="M20 375c8 4 17 7 26 7s17 -3 25 -7l-3 -183l106 20h3c10 0 18 -7 18 -17l7 -570c-8 -4 -16 -7 -25 -7s-17 3 -25 7l3 183l-106 -20h-3c-10 0 -18 7 -18 17zM64 -112l92 17l3 207l-92 -17z" />
    <glyph glyph-name="accidentalSharp" unicode="&#xe262;" horiz-adv-x="315" 
d="M236 -312c0 -10 -8 -19 -18 -19s-19 9 -19 19v145l-83 -31v-158c0 -10 -9 -19 -19 -19s-18 9 -18 19v145l-32 -12c-2 -1 -5 -1 -7 -1c-11 0 -20 9 -20 20v60c0 8 5 16 13 19l46 16v160l-32 -11c-2 -1 -5 -1 -7 -1c-11 0 -20 9 -20 20v60c0 8 5 15 13 18l46 17v158
c0 10 8 19 18 19s19 -9 19 -19v-145l83 31v158c0 10 9 19 19 19s18 -9 18 -19v-145l32 12c2 1 5 1 7 1c11 0 20 -9 20 -20v-60c0 -8 -5 -16 -13 -19l-46 -16v-160l32 11c2 1 5 1 7 1c11 0 20 -9 20 -20v-60c0 -8 -5 -15 -13 -18l-46 -17v-158zM116 65v-160l83 30v160z" />
    <glyph glyph-name="accidentalDoubleSharp" unicode="&#xe263;" horiz-adv-x="310" 
d="M182 0c23 -23 56 -28 89 -28c6 0 10 -4 10 -10l9 -87c1 -5 -4 -10 -9 -10h-1l-87 9c-5 1 -10 5 -10 10c0 33 -5 66 -28 89c-23 -23 -28 -56 -28 -89c0 -5 -4 -9 -9 -10l-88 -9h-1c-5 0 -10 5 -9 10l9 87c0 6 4 10 10 10c33 0 66 5 89 28c-23 23 -56 28 -89 28
c-6 0 -10 4 -10 10l-9 87c-1 5 4 10 9 10h1l88 -9c5 -1 9 -5 9 -10c0 -33 5 -66 28 -89c23 23 28 56 28 89c0 5 5 9 10 10l87 9h1c5 0 10 -5 9 -10l-9 -87c0 -6 -4 -10 -10 -10c-33 0 -66 -5 -89 -28z" />
    <glyph glyph-name="accidentalDoubleFlat" unicode="&#xe264;" horiz-adv-x="429" 
d="M237 41l-1 -66c0 -4 -1 -7 -1 -11c0 -22 1 -44 4 -66c44 37 87 82 87 139c0 33 -11 67 -40 67c-30 0 -49 -30 -49 -63zM194 -138l-2 106c-27 -34 -66 -62 -98 -93c-13 -13 -19 -38 -39 -38c-13 0 -23 11 -23 25l-12 595c8 5 18 8 27 8s19 -3 27 -8l-7 -345
c17 21 43 34 70 34c20 0 38 -8 52 -21l-7 332c8 5 18 8 27 8s19 -3 27 -8l-6 -345c24 21 55 34 87 34c53 0 92 -47 92 -101c0 -80 -86 -118 -147 -170c-15 -13 -23 -38 -44 -38c-13 0 -24 11 -24 25zM64 -26v-10c0 -23 1 -45 4 -68c39 38 71 86 71 141c0 32 -6 67 -33 67
c-28 0 -40 -32 -40 -63z" />
    <glyph glyph-name="accidentalTripleSharp" unicode="&#xe265;" horiz-adv-x="605" 
d="M182 0c23 -23 56 -28 89 -28c6 0 10 -4 10 -10l9 -87c1 -5 -4 -10 -9 -10h-1l-87 9c-5 1 -10 5 -10 10c0 33 -5 66 -28 89c-23 -23 -28 -56 -28 -89c0 -5 -4 -9 -9 -10l-88 -9h-1c-5 0 -10 5 -9 10l9 87c0 6 4 10 10 10c33 0 66 5 89 28c-23 23 -56 28 -89 28
c-6 0 -10 4 -10 10l-9 87c-1 5 4 10 9 10h1l88 -9c5 -1 9 -5 9 -10c0 -33 5 -66 28 -89c23 23 28 56 28 89c0 5 5 9 10 10l87 9h1c5 0 10 -5 9 -10l-9 -87c0 -6 -4 -10 -10 -10c-33 0 -66 -5 -89 -28zM526 -312c0 -10 -8 -19 -18 -19s-19 9 -19 19v145l-83 -31v-158
c0 -10 -9 -19 -19 -19s-18 9 -18 19v145l-32 -12c-2 -1 -5 -1 -7 -1c-11 0 -20 9 -20 20v60c0 8 5 16 13 19l46 16v160l-32 -11c-2 -1 -5 -1 -7 -1c-11 0 -20 9 -20 20v60c0 8 5 15 13 18l46 17v158c0 10 8 19 18 19s19 -9 19 -19v-145l83 31v158c0 10 9 19 19 19
s18 -9 18 -19v-145l32 12c2 1 5 1 7 1c11 0 20 -9 20 -20v-60c0 -8 -5 -16 -13 -19l-46 -16v-160l32 11c2 1 5 1 7 1c11 0 20 -9 20 -20v-60c0 -8 -5 -15 -13 -18l-46 -17v-158zM406 65v-160l83 30v160z" />
    <glyph glyph-name="accidentalTripleFlat" unicode="&#xe266;" horiz-adv-x="591" 
d="M226 -26v-10c0 -23 1 -45 4 -68c39 38 71 86 71 141c0 32 -6 67 -33 67c-28 0 -40 -32 -40 -63zM399 41l-1 -66c0 -4 -1 -7 -1 -11c0 -22 1 -44 4 -66c44 37 87 82 87 139c0 33 -11 67 -40 67c-30 0 -49 -30 -49 -63zM64 -26v-10c0 -23 1 -45 4 -68c39 38 71 86 71 141
c0 32 -6 67 -33 67c-28 0 -40 -32 -40 -63zM356 -138l-2 106c-27 -34 -66 -62 -98 -93c-13 -13 -19 -38 -39 -38c-13 0 -23 11 -23 25l-2 106c-27 -34 -66 -62 -98 -93c-13 -13 -19 -38 -39 -38c-13 0 -23 11 -23 25l-12 595c8 5 18 8 27 8s19 -3 27 -8l-7 -345
c17 21 43 34 70 34c20 0 38 -8 52 -21l-7 332c8 5 18 8 27 8s19 -3 27 -8l-7 -345c17 21 43 34 70 34c20 0 38 -8 52 -21l-7 332c8 5 18 8 27 8s19 -3 27 -8l-6 -345c24 21 55 34 87 34c53 0 92 -47 92 -101c0 -80 -86 -118 -147 -170c-15 -13 -23 -38 -44 -38
c-13 0 -24 11 -24 25z" />
    <glyph glyph-name="accidentalNaturalFlat" unicode="&#xe267;" horiz-adv-x="489" 
d="M296 41l-1 -66v-11c0 -22 1 -44 4 -66c45 38 93 80 93 139c0 33 -14 67 -43 67c-31 0 -53 -30 -53 -63zM254 -138l-12 595c8 5 18 8 27 8s19 -3 27 -8l-7 -345c25 21 58 34 91 34c52 0 89 -48 89 -102c0 -80 -86 -117 -147 -169c-15 -13 -24 -38 -45 -38
c-13 0 -23 11 -23 25zM20 375c8 4 17 7 26 7s17 -3 25 -7l-3 -183l106 20h3c10 0 18 -7 18 -17l7 -570c-8 -4 -16 -7 -25 -7s-17 3 -25 7l3 183l-106 -20h-3c-10 0 -18 7 -18 17zM64 -112l92 17l3 207l-92 -17z" />
    <glyph glyph-name="accidentalNaturalSharp" unicode="&#xe268;" horiz-adv-x="537" 
d="M458 -312c0 -10 -8 -19 -18 -19s-19 9 -19 19v145l-83 -31v-158c0 -10 -9 -19 -19 -19s-18 9 -18 19v145l-32 -12c-2 -1 -5 -1 -7 -1c-11 0 -20 9 -20 20v60c0 8 5 16 13 19l46 16v160l-32 -11c-2 -1 -5 -1 -7 -1c-11 0 -20 9 -20 20v60c0 8 5 15 13 18l46 17v158
c0 10 8 19 18 19s19 -9 19 -19v-145l83 31v158c0 10 9 19 19 19s18 -9 18 -19v-145l32 12c2 1 5 1 7 1c11 0 20 -9 20 -20v-60c0 -8 -5 -16 -13 -19l-46 -16v-160l32 11c2 1 5 1 7 1c11 0 20 -9 20 -20v-60c0 -8 -5 -15 -13 -18l-46 -17v-158zM338 65v-160l83 30v160z
M20 375c8 4 17 7 26 7s17 -3 25 -7l-3 -183l106 20h3c10 0 18 -7 18 -17l7 -570c-8 -4 -16 -7 -25 -7s-17 3 -25 7l3 183l-106 -20h-3c-10 0 -18 7 -18 17zM64 -112l92 17l3 207l-92 -17z" />
    <glyph glyph-name="accidentalSharpSharp" unicode="&#xe269;" horiz-adv-x="600" 
d="M521 -312c0 -10 -8 -19 -18 -19s-19 9 -19 19v145l-83 -31v-158c0 -10 -9 -19 -19 -19s-18 9 -18 19v145l-32 -12c-2 -1 -5 -1 -7 -1c-11 0 -20 9 -20 20v60c0 8 5 16 13 19l46 16v160l-32 -11c-2 -1 -5 -1 -7 -1c-11 0 -20 9 -20 20v60c0 8 5 15 13 18l46 17v158
c0 10 8 19 18 19s19 -9 19 -19v-145l83 31v158c0 10 9 19 19 19s18 -9 18 -19v-145l32 12c2 1 5 1 7 1c11 0 20 -9 20 -20v-60c0 -8 -5 -16 -13 -19l-46 -16v-160l32 11c2 1 5 1 7 1c11 0 20 -9 20 -20v-60c0 -8 -5 -15 -13 -18l-46 -17v-158zM401 65v-160l83 30v160z
M236 -312c0 -10 -8 -19 -18 -19s-19 9 -19 19v145l-83 -31v-158c0 -10 -9 -19 -19 -19s-18 9 -18 19v145l-32 -12c-2 -1 -5 -1 -7 -1c-11 0 -20 9 -20 20v60c0 8 5 16 13 19l46 16v160l-32 -11c-2 -1 -5 -1 -7 -1c-11 0 -20 9 -20 20v60c0 8 5 15 13 18l46 17v158
c0 10 8 19 18 19s19 -9 19 -19v-145l83 31v158c0 10 9 19 19 19s18 -9 18 -19v-145l32 12c2 1 5 1 7 1c11 0 20 -9 20 -20v-60c0 -8 -5 -16 -13 -19l-46 -16v-160l32 11c2 1 5 1 7 1c11 0 20 -9 20 -20v-60c0 -8 -5 -15 -13 -18l-46 -17v-158zM116 65v-160l83 30v160z" />
    <glyph glyph-name="accidentalParensLeft" unicode="&#xe26a;" horiz-adv-x="153" 
d="M70 0c0 -85 11 -173 60 -243c2 -2 3 -5 3 -7c0 -7 -6 -13 -13 -13c-4 0 -7 2 -10 6c-53 76 -90 164 -90 257s37 181 90 257c3 4 6 6 10 6c7 0 13 -6 13 -13c0 -2 -1 -5 -3 -7c-49 -70 -60 -158 -60 -243z" />
    <glyph glyph-name="accidentalParensRight" unicode="&#xe26b;" horiz-adv-x="153" 
d="M83 0c0 85 -11 173 -60 243c-2 2 -3 5 -3 7c0 7 6 13 13 13c4 0 7 -2 10 -6c53 -76 90 -164 90 -257s-37 -181 -90 -257c-3 -4 -6 -6 -10 -6c-7 0 -13 6 -13 13c0 2 1 5 3 7c49 70 60 158 60 243z" />
    <glyph glyph-name="accidentalBracketLeft" unicode="&#xe26c;" horiz-adv-x="140" 
d="M53 -196h40c8 0 13 -4 15 -10l11 -34c1 -2 1 -5 1 -6c0 -8 -10 -17 -21 -17h-46h-17c-9 0 -16 8 -16 15v496c0 7 7 15 16 15h17h46c11 0 21 -9 21 -17c0 -1 0 -4 -1 -6l-11 -34c-2 -6 -7 -10 -15 -10h-40v-392z" />
    <glyph glyph-name="accidentalBracketRight" unicode="&#xe26d;" horiz-adv-x="140" 
d="M87 -196v392h-40c-8 0 -13 4 -15 10l-11 34c-1 2 -1 5 -1 6c0 8 10 17 21 17h46h17c9 0 16 -8 16 -15v-496c0 -7 -7 -15 -16 -15h-17h-46c-11 0 -21 9 -21 17c0 1 0 4 1 6l11 34c2 6 7 10 15 10h40z" />
    <glyph glyph-name="accidentalQuarterToneFlatArrowUp" unicode="&#xe270;" horiz-adv-x="370" 
d="M177 41l-1 -66v-11c0 -22 1 -44 4 -66c45 38 93 80 93 139c0 33 -14 67 -43 67c-31 0 -53 -30 -53 -63zM20 404c0 2 2 3 3 4c50 57 79 110 118 171c2 2 5 4 9 4s7 -2 9 -4c39 -61 70 -114 120 -171c1 -1 2 -2 2 -4c0 -5 -14 -14 -22 -14c-31 0 -56 67 -77 67
c-2 0 -3 -1 -5 -1l-7 -344c25 21 58 34 91 34c52 0 89 -48 89 -102c0 -80 -86 -117 -147 -169c-15 -13 -24 -38 -45 -38c-13 0 -23 11 -23 25l-12 594c-2 0 -3 1 -5 1c-20 0 -43 -67 -74 -67c-7 0 -24 9 -24 14z" />
    <glyph glyph-name="accidentalThreeQuarterTonesFlatArrowDown" unicode="&#xe271;" horiz-adv-x="362" 
d="M127 -138l-12 595c8 5 18 8 27 8s19 -3 27 -8l-7 -345c25 21 58 34 91 34c52 0 89 -48 89 -102c0 -80 -86 -117 -147 -169c-11 -9 -30 -45 -30 -75v-25c0 -10 0 -28 17 -28c21 0 45 67 76 67c8 0 23 -9 23 -14c0 -2 -1 -3 -2 -4c-50 -57 -81 -111 -120 -172
c-2 -2 -5 -3 -9 -3s-7 1 -9 3c-39 61 -69 115 -119 172c-1 1 -2 2 -2 4c0 5 17 14 24 14c31 0 54 -67 74 -67c17 0 17 18 17 28v25c0 30 -8 54 -8 62zM169 41l-1 -66v-11c0 -22 1 -44 4 -66c45 38 93 80 93 139c0 33 -14 67 -43 67c-31 0 -53 -30 -53 -63z" />
    <glyph glyph-name="accidentalQuarterToneSharpNaturalArrowUp" unicode="&#xe272;" horiz-adv-x="326" 
d="M168 -112l92 17l3 207l-92 -17zM20 351c0 2 1 2 2 3c50 57 80 111 119 172c2 2 5 4 9 4s7 -2 9 -4c39 -61 70 -115 120 -172c1 -1 2 -1 2 -3c0 -5 -14 -15 -22 -15c-31 0 -56 68 -77 68c-3 0 -5 0 -7 -1l-3 -211l106 20h3c10 0 18 -7 18 -17l7 -570c-8 -4 -16 -7 -25 -7
s-17 3 -25 7l3 183l-106 -20h-3c-10 0 -18 7 -18 17l-8 598c-2 1 -4 1 -6 1c-20 0 -43 -68 -74 -68c-7 0 -24 10 -24 15z" />
    <glyph glyph-name="accidentalQuarterToneFlatNaturalArrowDown" unicode="&#xe273;" horiz-adv-x="326" 
d="M158 112l-92 -17l-3 -207l92 17zM306 -351c0 -2 -1 -2 -2 -3c-50 -57 -80 -111 -119 -172c-2 -2 -5 -4 -9 -4s-7 2 -9 4c-39 61 -70 115 -120 172c-1 1 -2 1 -2 3c0 5 14 15 22 15c31 0 56 -68 77 -68c3 0 5 0 7 1l3 211l-106 -20h-3c-10 0 -18 7 -18 17l-7 570
c8 4 16 7 25 7s17 -3 25 -7l-3 -183l106 20h3c10 0 18 -7 18 -17l8 -598c2 -1 4 -1 6 -1c20 0 43 68 74 68c7 0 24 -10 24 -15z" />
    <glyph glyph-name="accidentalThreeQuarterTonesSharpArrowUp" unicode="&#xe274;" horiz-adv-x="369" 
d="M116 65v-160l83 30v160zM236 -312c0 -10 -8 -19 -18 -19s-19 9 -19 19v145l-83 -31v-158c0 -10 -9 -19 -19 -19s-18 9 -18 19v145l-32 -12c-2 -1 -5 -1 -7 -1c-11 0 -20 9 -20 20v60c0 8 5 16 13 19l46 16v160l-32 -11c-2 -1 -5 -1 -7 -1c-11 0 -20 9 -20 20v60
c0 8 5 15 13 18l46 17v158c0 10 8 19 18 19s19 -9 19 -19v-145l83 31v243c-2 3 -6 8 -13 8c-20 0 -43 -67 -74 -67c-7 0 -24 9 -24 14c0 2 1 3 2 4c50 57 80 111 119 172c2 2 5 3 9 3s7 -1 9 -3c39 -61 70 -115 120 -172c1 -1 2 -2 2 -4c0 -5 -15 -14 -23 -14
c-31 0 -55 67 -76 67c-7 0 -12 -3 -14 -8v-230l32 12c2 1 5 1 7 1c11 0 20 -9 20 -20v-60c0 -8 -5 -16 -13 -19l-46 -16v-160l32 11c2 1 5 1 7 1c11 0 20 -9 20 -20v-60c0 -8 -5 -15 -13 -18l-46 -17v-158z" />
    <glyph glyph-name="accidentalQuarterToneSharpArrowDown" unicode="&#xe275;" horiz-adv-x="369" 
d="M253 -65v160l-83 -30v-160zM133 312c0 10 8 19 18 19s19 -9 19 -19v-145l83 31v158c0 10 9 19 19 19s18 -9 18 -19v-145l32 12c2 1 5 1 7 1c11 0 20 -9 20 -20v-60c0 -8 -5 -16 -13 -19l-46 -16v-160l32 11c2 1 5 1 7 1c11 0 20 -9 20 -20v-60c0 -8 -5 -15 -13 -18
l-46 -17v-158c0 -10 -8 -19 -18 -19s-19 9 -19 19v145l-83 -31v-243c2 -3 6 -8 13 -8c20 0 43 67 74 67c7 0 24 -9 24 -14c0 -2 -1 -3 -2 -4c-50 -57 -80 -111 -119 -172c-2 -2 -5 -3 -9 -3s-7 1 -9 3c-39 61 -70 115 -120 172c-1 1 -2 2 -2 4c0 5 15 14 23 14
c31 0 55 -67 76 -67c7 0 12 3 14 8v230l-32 -12c-2 -1 -5 -1 -7 -1c-11 0 -20 9 -20 20v60c0 8 5 16 13 19l46 16v160l-32 -11c-2 -1 -5 -1 -7 -1c-11 0 -20 9 -20 20v60c0 8 5 15 13 18l46 17v158z" />
    <glyph glyph-name="accidentalFiveQuarterTonesSharpArrowUp" unicode="&#xe276;" horiz-adv-x="426" 
d="M182 0c23 -23 56 -28 89 -28c6 0 10 -4 10 -10l9 -87c1 -5 -4 -10 -9 -10h-1l-87 9c-5 1 -10 5 -10 10c0 33 -5 66 -28 89c-23 -23 -28 -56 -28 -89c0 -5 -4 -9 -9 -10l-88 -9h-1c-5 0 -10 5 -9 10l9 87c0 6 4 10 10 10c33 0 66 5 89 28c-23 23 -56 28 -89 28
c-6 0 -10 4 -10 10l-9 87c-1 5 4 10 9 10h1l88 -9c5 -1 9 -5 9 -10c0 -33 5 -66 28 -89c23 23 28 56 28 89c0 5 5 9 10 10l67 7v83c0 10 -1 28 -18 28c-20 0 -42 -67 -73 -67c-7 0 -24 9 -24 14c0 2 1 3 2 4c50 57 80 111 119 172c2 2 5 3 9 3s7 -1 9 -3
c39 -61 70 -115 120 -172c1 -1 2 -2 2 -4c0 -5 -14 -14 -22 -14c-31 0 -56 67 -77 67c-17 0 -17 -18 -17 -28v-88v-3l-9 -87c0 -6 -4 -10 -10 -10c-33 0 -66 -5 -89 -28z" />
    <glyph glyph-name="accidentalThreeQuarterTonesSharpArrowDown" unicode="&#xe277;" horiz-adv-x="426" 
d="M244 0c-23 23 -56 28 -89 28c-6 0 -10 4 -10 10l-9 87c-1 5 4 10 9 10h1l87 -9c5 -1 10 -5 10 -10c0 -33 5 -66 28 -89c23 23 28 56 28 89c0 5 4 9 9 10l88 9h1c5 0 10 -5 9 -10l-9 -87c0 -6 -4 -10 -10 -10c-33 0 -66 -5 -89 -28c23 -23 56 -28 89 -28c6 0 10 -4 10 -10
l9 -87c1 -5 -4 -10 -9 -10h-1l-88 9c-5 1 -9 5 -9 10c0 33 -5 66 -28 89c-23 -23 -28 -56 -28 -89c0 -5 -5 -9 -10 -10l-67 -7v-83c0 -10 1 -28 18 -28c20 0 42 67 73 67c7 0 24 -9 24 -14c0 -2 -1 -3 -2 -4c-50 -57 -80 -111 -119 -172c-2 -2 -5 -3 -9 -3s-7 1 -9 3
c-39 61 -70 115 -120 172c-1 1 -2 2 -2 4c0 5 14 14 22 14c31 0 56 -67 77 -67c17 0 17 18 17 28v88v3l9 87c0 6 4 10 10 10c33 0 66 5 89 28z" />
    <glyph glyph-name="accidentalThreeQuarterTonesFlatArrowUp" unicode="&#xe278;" horiz-adv-x="429" 
d="M64 -26v-10c0 -23 1 -45 4 -68c39 38 71 86 71 141c0 32 -6 67 -33 67c-28 0 -40 -32 -40 -63zM194 -138l-2 106c-27 -34 -66 -62 -98 -93c-13 -13 -19 -38 -39 -38c-13 0 -23 11 -23 25l-12 595c8 5 18 8 27 8s19 -3 27 -8l-7 -345c17 21 43 34 70 34c20 0 38 -8 52 -21
l-7 428c-1 1 -3 1 -5 1c-20 0 -43 -68 -74 -68c-7 0 -24 10 -24 15c0 2 2 2 3 3c50 57 79 111 118 172c2 2 5 4 9 4s7 -2 9 -4c39 -61 70 -115 120 -172c1 -1 2 -1 2 -3c0 -5 -14 -15 -22 -15c-31 0 -56 68 -77 68c-2 0 -4 0 -5 -1l-6 -441c24 21 55 34 87 34
c53 0 92 -47 92 -101c0 -80 -86 -118 -147 -170c-15 -13 -23 -38 -44 -38c-13 0 -24 11 -24 25zM237 41l-1 -66c0 -4 -1 -7 -1 -11c0 -22 1 -44 4 -66c44 37 87 82 87 139c0 33 -11 67 -40 67c-30 0 -49 -30 -49 -63z" />
    <glyph glyph-name="accidentalFiveQuarterTonesFlatArrowDown" unicode="&#xe279;" horiz-adv-x="524" 
d="M159 -26v-10c0 -23 1 -45 4 -68c39 38 71 86 71 141c0 32 -6 67 -33 67c-28 0 -40 -32 -40 -63zM135 -200c0 28 -8 45 -8 62l-12 595c8 5 18 8 27 8s19 -3 27 -8l-7 -345c17 21 43 34 70 34c20 0 38 -8 52 -21l-7 332c8 5 18 8 27 8s19 -3 27 -8l-6 -345
c24 21 55 34 87 34c53 0 92 -47 92 -101c0 -80 -86 -118 -147 -170c-15 -13 -23 -38 -44 -38c-13 0 -24 11 -24 25l-2 106c-27 -34 -66 -62 -98 -93c-14 -14 -24 -46 -24 -75v-25c0 -10 0 -28 17 -28c21 0 45 67 76 67c8 0 23 -9 23 -14c0 -2 -1 -3 -2 -4
c-50 -57 -81 -111 -120 -172c-2 -2 -5 -3 -9 -3s-7 1 -9 3c-39 61 -69 115 -119 172c-1 1 -2 2 -2 4c0 5 17 14 24 14c31 0 54 -67 74 -67c17 0 17 18 17 28v25zM332 41l-1 -66c0 -4 -1 -7 -1 -11c0 -22 1 -44 4 -66c44 37 87 82 87 139c0 33 -11 67 -40 67
c-30 0 -49 -30 -49 -63z" />
    <glyph glyph-name="accidentalArrowUp" unicode="&#xe27a;" horiz-adv-x="346" 
d="M20 -82c0 2 2 4 3 5c59 66 92 131 139 201c2 3 6 5 10 5c5 0 9 -2 11 -5c46 -71 82 -135 141 -201c0 -1 2 -3 2 -5c0 -6 -17 -17 -26 -17c-36 0 -65 80 -90 80c-20 0 -20 -22 -20 -34v-337c0 -9 -4 -17 -18 -17s-17 8 -17 17v337c0 12 0 34 -21 34c-23 0 -50 -80 -86 -80
c-8 0 -28 11 -28 17z" />
    <glyph glyph-name="accidentalArrowDown" unicode="&#xe27b;" horiz-adv-x="346" 
d="M20 82c0 6 20 17 28 17c36 0 63 -80 86 -80c21 0 21 22 21 34v337c0 9 3 17 17 17s18 -8 18 -17v-337c0 -12 0 -34 20 -34c25 0 54 80 90 80c9 0 26 -11 26 -17c0 -2 -2 -4 -2 -5c-59 -66 -95 -130 -141 -201c-2 -3 -6 -5 -11 -5c-4 0 -8 2 -10 5
c-47 70 -80 135 -139 201c-1 1 -3 3 -3 5z" />
    <glyph glyph-name="accidentalQuarterToneFlatStein" unicode="&#xe280;" horiz-adv-x="267" 
d="M193 41c0 33 -22 63 -53 63c-29 0 -43 -34 -43 -67c0 -59 48 -101 93 -139c3 22 4 44 4 66v11zM235 -138c0 -14 -10 -25 -23 -25c-21 0 -30 25 -45 38c-61 52 -147 89 -147 169c0 54 37 102 89 102c33 0 66 -13 91 -34l-7 345c8 5 18 8 27 8s19 -3 27 -8z" />
    <glyph glyph-name="accidentalThreeQuarterTonesFlatZimmermann" unicode="&#xe281;" horiz-adv-x="507" 
d="M314 41l-1 -66v-11c0 -22 1 -44 4 -66c45 38 93 80 93 139c0 33 -14 67 -43 67c-31 0 -53 -30 -53 -63zM272 -138l-12 595c8 5 18 8 27 8s19 -3 27 -8l-7 -345c25 21 58 34 91 34c52 0 89 -48 89 -102c0 -80 -86 -117 -147 -169c-15 -13 -24 -38 -45 -38
c-13 0 -23 11 -23 25zM193 41c0 33 -22 63 -53 63c-29 0 -43 -34 -43 -67c0 -59 48 -101 93 -139c3 22 4 44 4 66v11zM235 -138c0 -14 -10 -25 -23 -25c-21 0 -30 25 -45 38c-61 52 -147 89 -147 169c0 54 37 102 89 102c33 0 66 -13 91 -34l-7 345c8 5 18 8 27 8
s19 -3 27 -8z" />
    <glyph glyph-name="accidentalQuarterToneSharpStein" unicode="&#xe282;" horiz-adv-x="255" 
d="M47 51c-2 -1 -5 -1 -7 -1c-11 0 -20 9 -20 20v60c0 8 5 15 13 18l76 28v158c0 10 8 19 18 19s19 -9 19 -19v-145l62 23c2 1 5 1 7 1c11 0 20 -9 20 -20v-60c0 -8 -5 -16 -13 -19l-76 -27v-161l62 23c2 1 5 1 7 1c11 0 20 -9 20 -20v-60c0 -8 -5 -16 -13 -19l-76 -27v-158
c0 -10 -9 -19 -19 -19s-18 9 -18 19v144l-62 -22c-2 -1 -5 -1 -7 -1c-11 0 -20 9 -20 20v60c0 8 5 15 13 18l76 28v160z" />
    <glyph glyph-name="accidentalThreeQuarterTonesSharpStein" unicode="&#xe283;" horiz-adv-x="387" 
d="M175 -87v160l-59 -21v-160zM289 -318c-9 0 -18 8 -18 19v145l-59 -22v-158c0 -10 -9 -19 -19 -19s-18 9 -18 19v145l-59 -22v-158c0 -9 -10 -19 -19 -19s-18 8 -18 19v145l-32 -12c-1 -1 -4 -1 -7 -1c-10 0 -20 10 -20 20v60c0 9 4 16 13 19l46 16v160l-32 -11
c-1 -1 -4 -1 -7 -1c-10 0 -20 10 -20 20v60c0 9 4 15 13 18l46 17v158c0 11 9 19 18 19s19 -10 19 -19v-145l59 22v158c0 10 8 19 18 19s19 -9 19 -19v-145l59 22v158c0 11 9 19 18 19s19 -10 19 -19v-145l32 12c1 1 4 1 7 1c10 0 20 -10 20 -20v-60c0 -9 -4 -16 -13 -19
l-46 -16v-160l32 11c1 1 4 1 7 1c10 0 20 -10 20 -20v-60c0 -9 -4 -15 -13 -18l-46 -17v-158c0 -9 -10 -19 -19 -19zM271 -52v160l-59 -21v-160z" />
    <glyph glyph-name="accidentalNarrowReversedFlat" unicode="&#xe284;" horiz-adv-x="211" 
d="M150 41c0 33 -17 63 -40 63c-22 0 -32 -34 -32 -67c0 -59 36 -101 70 -139c2 22 3 44 3 66v11zM182 -138c0 -14 -8 -25 -18 -25c-16 0 -22 25 -33 38c-46 52 -111 89 -111 169c0 54 28 102 67 102c25 0 49 -13 68 -34l-5 345c6 5 13 8 20 8s15 -3 21 -8z" />
    <glyph glyph-name="accidentalNarrowReversedFlatAndFlat" unicode="&#xe285;" horiz-adv-x="451" 
d="M150 41c0 33 -17 63 -40 63c-22 0 -32 -34 -32 -67c0 -59 36 -101 70 -139c2 22 3 44 3 66v11zM182 -138c0 -14 -8 -25 -18 -25c-16 0 -22 25 -33 38c-46 52 -111 89 -111 169c0 54 28 102 67 102c25 0 49 -13 68 -34l-5 345c6 5 13 8 20 8s15 -3 21 -8zM258 41l-1 -66
v-11c0 -22 1 -44 4 -66c45 38 93 80 93 139c0 33 -14 67 -43 67c-31 0 -53 -30 -53 -63zM216 -138l-12 595c8 5 18 8 27 8s19 -3 27 -8l-7 -345c25 21 58 34 91 34c52 0 89 -48 89 -102c0 -80 -86 -117 -147 -169c-15 -13 -24 -38 -45 -38c-13 0 -23 11 -23 25z" />
    <glyph glyph-name="accidentalReversedFlatArrowUp" unicode="&#xe290;" horiz-adv-x="371" 
d="M235 -138c0 -14 -10 -25 -23 -25c-21 0 -30 25 -45 38c-61 52 -147 89 -147 169c0 54 37 102 89 102c33 0 66 -13 91 -34l-7 344c-2 0 -3 1 -5 1c-20 0 -43 -67 -74 -67c-7 0 -24 9 -24 14c0 2 2 3 3 4c50 57 79 110 118 171c2 2 5 4 9 4s7 -2 9 -4
c39 -61 70 -114 120 -171c1 -1 2 -2 2 -4c0 -5 -14 -14 -22 -14c-31 0 -56 67 -77 67c-2 0 -3 -1 -5 -1zM193 41c0 33 -22 63 -53 63c-29 0 -43 -34 -43 -67c0 -59 48 -101 93 -139c3 22 4 44 4 66v11z" />
    <glyph glyph-name="accidentalReversedFlatArrowDown" unicode="&#xe291;" horiz-adv-x="362" 
d="M193 41c0 33 -22 63 -53 63c-29 0 -43 -34 -43 -67c0 -59 48 -101 93 -139c3 22 4 44 4 66v11zM235 -138c0 -18 -8 -33 -8 -62v-25c0 -10 0 -28 17 -28c20 0 43 67 74 67c7 0 24 -9 24 -14c0 -2 -1 -3 -2 -4c-50 -57 -80 -111 -119 -172c-2 -2 -5 -3 -9 -3s-7 1 -9 3
c-39 61 -70 115 -120 172c-1 1 -2 2 -2 4c0 5 15 14 23 14c31 0 55 -67 76 -67c17 0 17 18 17 28v25c0 30 -18 63 -30 75c-61 52 -147 89 -147 169c0 54 37 102 89 102c33 0 66 -13 91 -34l-7 345c8 5 18 8 27 8s19 -3 27 -8z" />
    <glyph glyph-name="accidentalFilledReversedFlatArrowUp" unicode="&#xe292;" horiz-adv-x="371" 
d="M235 -138c0 -14 -10 -25 -23 -25c-21 0 -30 25 -45 38c-61 52 -147 89 -147 169c0 54 37 102 89 102c33 0 66 -13 91 -34l-7 344c-2 0 -3 1 -5 1c-20 0 -43 -67 -74 -67c-7 0 -24 9 -24 14c0 2 2 3 3 4c50 57 79 110 118 171c2 2 5 4 9 4s7 -2 9 -4
c39 -61 70 -114 120 -171c1 -1 2 -2 2 -4c0 -5 -14 -14 -22 -14c-31 0 -56 67 -77 67c-2 0 -3 -1 -5 -1z" />
    <glyph glyph-name="accidentalFilledReversedFlatArrowDown" unicode="&#xe293;" horiz-adv-x="362" 
d="M235 -138c0 -18 -8 -33 -8 -62v-25c0 -10 0 -28 17 -28c20 0 43 67 74 67c7 0 24 -9 24 -14c0 -2 -1 -3 -2 -4c-50 -57 -80 -111 -119 -172c-2 -2 -5 -3 -9 -3s-7 1 -9 3c-39 61 -70 115 -120 172c-1 1 -2 2 -2 4c0 5 15 14 23 14c31 0 55 -67 76 -67c17 0 17 18 17 28
v25c0 30 -18 63 -30 75c-61 52 -147 89 -147 169c0 54 37 102 89 102c33 0 66 -13 91 -34l-7 345c8 5 18 8 27 8s19 -3 27 -8z" />
    <glyph glyph-name="accidentalReversedFlatAndFlatArrowUp" unicode="&#xe294;" horiz-adv-x="440" 
d="M240 112c25 21 58 34 91 34c52 0 89 -48 89 -102c0 -80 -86 -117 -147 -169c-15 -13 -32 -38 -53 -38s-38 25 -53 38c-61 52 -147 89 -147 169c0 54 37 102 89 102c33 0 66 -13 91 -34l-7 344c-2 0 -3 1 -5 1c-20 0 -43 -67 -74 -67c-7 0 -24 9 -24 14c0 2 2 3 3 4
c50 57 79 110 118 171c2 2 5 4 9 4s7 -2 9 -4c39 -61 70 -114 120 -171c1 -1 2 -2 2 -4c0 -5 -14 -14 -22 -14c-31 0 -56 67 -77 67c-2 0 -3 -1 -5 -1zM193 41c0 33 -22 63 -53 63c-29 0 -43 -34 -43 -67c0 -59 48 -101 93 -139c3 22 4 44 4 66v11zM247 41l-1 -66v-11
c0 -22 1 -44 4 -66c45 38 93 80 93 139c0 33 -14 67 -43 67c-31 0 -53 -30 -53 -63z" />
    <glyph glyph-name="accidentalReversedFlatAndFlatArrowDown" unicode="&#xe295;" horiz-adv-x="440" 
d="M240 112c25 21 58 34 91 34c52 0 89 -48 89 -102c0 -80 -86 -117 -147 -169c-14 -12 -38 -46 -38 -75v-53c0 -10 0 -28 17 -28c21 0 45 67 76 67c8 0 23 -9 23 -14c0 -2 -1 -3 -2 -4c-50 -57 -81 -111 -120 -172c-2 -2 -5 -3 -9 -3s-7 1 -9 3c-39 61 -69 115 -119 172
c-1 1 -2 2 -2 4c0 5 17 14 24 14c31 0 54 -67 74 -67c17 0 17 18 17 28v53c0 29 -24 63 -38 75c-61 52 -147 89 -147 169c0 54 37 102 89 102c33 0 66 -13 91 -34l-7 345c8 5 18 8 27 8s19 -3 27 -8zM193 41c0 33 -22 63 -53 63c-29 0 -43 -34 -43 -67
c0 -59 48 -101 93 -139c3 22 4 44 4 66v11zM247 41l-1 -66v-11c0 -22 1 -44 4 -66c45 38 93 80 93 139c0 33 -14 67 -43 67c-31 0 -53 -30 -53 -63z" />
    <glyph glyph-name="accidentalFilledReversedFlatAndFlat" unicode="&#xe296;" horiz-adv-x="440" 
d="M240 41l-1 -66v-11c0 -22 1 -44 4 -66c45 38 100 80 100 139c0 33 -14 67 -43 67c-31 0 -60 -30 -60 -63zM240 112c25 21 58 34 91 34c52 0 89 -48 89 -102c0 -80 -86 -117 -147 -169c-15 -13 -32 -38 -53 -38s-38 25 -53 38c-61 52 -147 89 -147 169c0 54 37 102 89 102
c33 0 66 -13 91 -34l-7 345c8 5 18 8 27 8s19 -3 27 -8z" />
    <glyph glyph-name="accidentalFilledReversedFlatAndFlatArrowUp" unicode="&#xe297;" horiz-adv-x="440" 
d="M240 112c25 21 58 34 91 34c52 0 89 -48 89 -102c0 -80 -86 -117 -147 -169c-15 -13 -32 -38 -53 -38s-38 25 -53 38c-61 52 -147 89 -147 169c0 54 37 102 89 102c33 0 66 -13 91 -34l-7 344c-2 0 -3 1 -5 1c-20 0 -43 -67 -74 -67c-7 0 -24 9 -24 14c0 2 2 3 3 4
c50 57 79 110 118 171c2 2 5 4 9 4s7 -2 9 -4c39 -61 70 -114 120 -171c1 -1 2 -2 2 -4c0 -5 -14 -14 -22 -14c-31 0 -56 67 -77 67c-2 0 -3 -1 -5 -1zM240 41l-1 -66v-11c0 -22 1 -44 4 -66c45 38 100 80 100 139c0 33 -14 67 -43 67c-31 0 -60 -30 -60 -63z" />
    <glyph glyph-name="accidentalFilledReversedFlatAndFlatArrowDown" unicode="&#xe298;" horiz-adv-x="440" 
d="M240 112c25 21 58 34 91 34c52 0 89 -48 89 -102c0 -80 -86 -117 -147 -169c-14 -12 -38 -46 -38 -75v-53c0 -10 0 -28 17 -28c21 0 45 67 76 67c8 0 23 -9 23 -14c0 -2 -1 -3 -2 -4c-50 -57 -81 -111 -120 -172c-2 -2 -5 -3 -9 -3s-7 1 -9 3c-39 61 -69 115 -119 172
c-1 1 -2 2 -2 4c0 5 17 14 24 14c31 0 54 -67 74 -67c17 0 17 18 17 28v53c0 29 -24 63 -38 75c-61 52 -147 89 -147 169c0 54 37 102 89 102c33 0 66 -13 91 -34l-7 345c8 5 18 8 27 8s19 -3 27 -8zM240 41l-1 -66v-11c0 -22 1 -44 4 -66c45 38 100 80 100 139
c0 33 -14 67 -43 67c-31 0 -60 -30 -60 -63z" />
    <glyph glyph-name="accidentalHalfSharpArrowUp" unicode="&#xe299;" horiz-adv-x="301" 
d="M69 51c-2 -1 -5 -1 -7 -1c-11 0 -20 9 -20 20v60c0 8 5 15 13 18l76 28v215c-2 3 -6 8 -13 8c-20 0 -43 -67 -74 -67c-7 0 -24 9 -24 14c0 2 1 3 2 4c50 57 80 111 119 172c2 2 5 3 9 3s7 -1 9 -3c39 -61 70 -115 120 -172c1 -1 2 -2 2 -4c0 -5 -15 -14 -23 -14
c-31 0 -55 67 -76 67c-7 0 -12 -3 -14 -8v-202l62 23c2 1 5 1 7 1c11 0 20 -9 20 -20v-60c0 -8 -5 -16 -13 -19l-76 -27v-161l62 23c2 1 5 1 7 1c11 0 20 -9 20 -20v-60c0 -8 -5 -16 -13 -19l-76 -27v-158c0 -10 -9 -19 -19 -19s-18 9 -18 19v144l-62 -22c-2 -1 -5 -1 -7 -1
c-11 0 -20 9 -20 20v60c0 8 5 15 13 18l76 28v160z" />
    <glyph glyph-name="accidentalHalfSharpArrowDown" unicode="&#xe29a;" horiz-adv-x="301" 
d="M71 51c-2 -1 -5 -1 -7 -1c-11 0 -20 9 -20 20v60c0 8 5 15 13 18l76 28v158c0 10 8 19 18 19s19 -9 19 -19v-145l62 23c2 1 5 1 7 1c11 0 20 -9 20 -20v-60c0 -8 -5 -16 -13 -19l-76 -27v-161l62 23c2 1 5 1 7 1c11 0 20 -9 20 -20v-60c0 -8 -5 -16 -13 -19l-76 -27v-215
c2 -3 6 -8 13 -8c20 0 43 67 74 67c7 0 24 -9 24 -14c0 -2 -1 -3 -2 -4c-50 -57 -80 -111 -119 -172c-2 -2 -5 -3 -9 -3s-7 1 -9 3c-39 61 -70 115 -120 172c-1 1 -2 2 -2 4c0 5 15 14 23 14c31 0 55 -67 76 -67c7 0 12 3 14 8v201l-62 -22c-2 -1 -5 -1 -7 -1
c-11 0 -20 9 -20 20v60c0 8 5 15 13 18l76 28v160z" />
    <glyph glyph-name="accidentalOneAndAHalfSharpsArrowUp" unicode="&#xe29b;" horiz-adv-x="441" 
d="M271 -52v160l-59 -21v-160zM289 -318c-9 0 -18 8 -18 19v145l-59 -22v-158c0 -10 -9 -19 -19 -19s-18 9 -18 19v145l-59 -22v-158c0 -9 -10 -19 -19 -19s-18 8 -18 19v145l-32 -12c-1 -1 -4 -1 -7 -1c-10 0 -20 10 -20 20v60c0 9 4 16 13 19l46 16v160l-32 -11
c-1 -1 -4 -1 -7 -1c-10 0 -20 10 -20 20v60c0 9 4 15 13 18l46 17v158c0 11 9 19 18 19s19 -10 19 -19v-145l59 22v158c0 10 8 19 18 19s19 -9 19 -19v-145l59 22v230c-2 3 -6 8 -13 8c-20 0 -43 -67 -74 -67c-7 0 -24 9 -24 14c0 2 1 3 2 4c50 57 80 111 119 172
c2 2 5 3 9 3s7 -1 9 -3c39 -61 70 -115 120 -172c1 -1 2 -2 2 -4c0 -5 -15 -14 -23 -14c-31 0 -55 67 -76 67c-7 0 -12 -3 -14 -8v-217l32 12c1 1 4 1 7 1c10 0 20 -10 20 -20v-60c0 -9 -4 -16 -13 -19l-46 -16v-160l32 11c1 1 4 1 7 1c10 0 20 -10 20 -20v-60
c0 -9 -4 -15 -13 -18l-46 -17v-158c0 -9 -10 -19 -19 -19zM175 -87v160l-59 -21v-160z" />
    <glyph glyph-name="accidentalOneAndAHalfSharpsArrowDown" unicode="&#xe29c;" horiz-adv-x="441" 
d="M325 -52v160l-59 -21v-160zM343 -318c-9 0 -18 8 -18 19v145l-59 -22v-158c0 -10 -9 -19 -19 -19s-18 9 -18 19v145l-59 -22v-230c2 -3 6 -8 13 -8c20 0 43 67 74 67c7 0 24 -9 24 -14c0 -2 -1 -3 -2 -4c-50 -57 -80 -111 -119 -172c-2 -2 -5 -3 -9 -3s-7 1 -9 3
c-39 61 -70 115 -120 172c-1 1 -2 2 -2 4c0 5 15 14 23 14c31 0 55 -67 76 -67c7 0 12 3 14 8v217l-32 -12c-1 -1 -4 -1 -7 -1c-10 0 -20 10 -20 20v60c0 9 4 16 13 19l46 16v160l-32 -11c-1 -1 -4 -1 -7 -1c-10 0 -20 10 -20 20v60c0 9 4 15 13 18l46 17v158
c0 11 9 19 18 19s19 -10 19 -19v-145l59 22v158c0 10 8 19 18 19s19 -9 19 -19v-145l59 22v158c0 11 9 19 18 19s19 -10 19 -19v-145l32 12c1 1 4 1 7 1c10 0 20 -10 20 -20v-60c0 -9 -4 -16 -13 -19l-46 -16v-160l32 11c1 1 4 1 7 1c10 0 20 -10 20 -20v-60
c0 -9 -4 -15 -13 -18l-46 -17v-158c0 -9 -10 -19 -19 -19zM229 -87v160l-59 -21v-160z" />
    <glyph glyph-name="accidentalSims12Down" unicode="&#xe2a0;" horiz-adv-x="388" 
d="M20 74c0 7 23 19 32 19c41 0 71 -90 98 -90c23 0 23 25 23 38v383c0 10 4 19 20 19s20 -9 20 -19v-383c0 -13 0 -38 23 -38c28 0 61 90 102 90c10 0 30 -12 30 -19c0 -2 -2 -4 -3 -5c-67 -76 -108 -148 -160 -229c-2 -3 -7 -5 -12 -5s-10 2 -12 5
c-52 81 -91 153 -158 229c-1 1 -3 3 -3 5z" />
    <glyph glyph-name="accidentalSims6Down" unicode="&#xe2a1;" horiz-adv-x="277" 
d="M20 74c0 7 26 19 36 19c47 0 91 -90 118 -90c23 0 23 25 23 38v383c0 10 4 19 20 19s20 -9 20 -19v-529c0 -40 -4 -49 -8 -55c-2 -3 -7 -5 -12 -5s-10 2 -12 5c-52 81 -106 153 -182 229c-1 1 -3 3 -3 5z" />
    <glyph glyph-name="accidentalSims4Down" unicode="&#xe2a2;" horiz-adv-x="337" 
d="M276 354l-39 -459c-3 -40 -4 -49 -8 -55c-2 -3 -7 -5 -12 -5s-10 2 -12 5c-52 81 -106 153 -182 229c-1 1 -3 3 -3 5c0 7 26 19 36 19c47 0 91 -90 118 -90c23 0 22 25 23 38l40 369c0 18 16 28 32 33l201 71c7 2 16 4 30 4c27 0 45 -11 45 -36v-13c0 -14 -9 -26 -32 -33
z" />
    <glyph glyph-name="accidentalSims12Up" unicode="&#xe2a3;" horiz-adv-x="388" 
d="M20 -74c0 2 2 4 3 5c67 76 106 148 158 229c2 3 7 5 12 5s10 -2 12 -5c52 -81 93 -153 160 -229c1 -1 3 -3 3 -5c0 -7 -20 -19 -30 -19c-41 0 -74 90 -102 90c-23 0 -23 -25 -23 -38v-383c0 -10 -4 -19 -20 -19s-20 9 -20 19v383c0 13 0 38 -23 38c-27 0 -57 -90 -98 -90
c-9 0 -32 12 -32 19z" />
    <glyph glyph-name="accidentalSims6Up" unicode="&#xe2a4;" horiz-adv-x="277" 
d="M20 -74c0 2 2 4 3 5c76 76 130 148 182 229c2 3 7 5 12 5s10 -2 12 -5c4 -6 8 -15 8 -55v-529c0 -10 -4 -19 -20 -19s-20 9 -20 19v383c0 13 0 38 -23 38c-27 0 -71 -90 -118 -90c-10 0 -36 12 -36 19z" />
    <glyph glyph-name="accidentalSims4Up" unicode="&#xe2a5;" horiz-adv-x="388" 
d="M308 -354v313c0 13 0 38 -23 38c-27 0 -71 -90 -118 -90c-10 0 -36 12 -36 19c0 2 2 4 3 5c76 76 130 148 182 229c2 3 7 5 12 5s10 -2 12 -5c4 -6 8 -15 8 -55v-515c0 -18 -16 -28 -32 -33l-241 -86c-7 -2 -10 -4 -23 -4c-34 0 -52 11 -52 36v13c0 14 9 26 32 33z" />
    <glyph glyph-name="accidentalJohnstonPlus" unicode="&#xe2b0;" horiz-adv-x="235" 
d="M137 -118c0 -11 -9 -20 -19 -20c-11 0 -20 9 -20 20v58h-58c-11 0 -20 9 -20 20s9 20 20 20h58v58c0 11 9 20 20 20c10 0 19 -9 19 -20v-58h59c10 0 19 -9 19 -20s-9 -20 -19 -20h-59v-58z" />
    <glyph glyph-name="accidentalJohnstonMinus" unicode="&#xe2b1;" horiz-adv-x="235" 
d="M40 -60c-11 0 -20 9 -20 20s9 20 20 20h156c10 0 19 -9 19 -20s-9 -20 -19 -20h-156z" />
    <glyph glyph-name="accidentalJohnstonEl" unicode="&#xe2b2;" horiz-adv-x="197" 
d="M39 -101c-10 0 -19 9 -19 19v298c0 10 9 19 19 19s18 -9 18 -19v-232l93 26c2 1 5 1 7 1c11 0 20 -9 20 -20v-39c0 -8 -5 -15 -13 -18l-117 -34c-2 -1 -6 -1 -8 -1z" />
    <glyph glyph-name="accidentalJohnstonSeven" unicode="&#xe2b3;" horiz-adv-x="197" 
d="M158 101c10 0 19 -9 19 -19v-298c0 -10 -9 -19 -19 -19s-18 9 -18 19v232l-93 -26c-2 -1 -5 -1 -7 -1c-11 0 -20 9 -20 20v39c0 8 5 15 13 18l117 34c2 1 6 1 8 1z" />
    <glyph glyph-name="accidentalJohnstonUp" unicode="&#xe2b4;" horiz-adv-x="238" 
d="M137 -141c0 -10 -8 -19 -18 -19s-19 9 -19 19v193c0 7 0 19 -7 19c-15 0 -32 -47 -55 -47c-5 0 -18 6 -18 10c0 1 1 2 2 3c38 41 59 82 90 125c1 2 4 3 7 3s6 -1 7 -3c30 -44 53 -84 91 -125c0 -1 1 -2 1 -3c0 -4 -10 -10 -16 -10c-23 0 -42 47 -58 47
c-6 0 -7 -12 -7 -19v-193z" />
    <glyph glyph-name="accidentalJohnstonDown" unicode="&#xe2b5;" horiz-adv-x="238" 
d="M137 141v-193c0 -7 1 -19 7 -19c16 0 35 47 58 47c6 0 16 -6 16 -10c0 -1 -1 -2 -1 -3c-38 -41 -61 -81 -91 -125c-1 -2 -4 -3 -7 -3s-6 1 -7 3c-31 43 -52 84 -90 125c-1 1 -2 2 -2 3c0 4 13 10 18 10c23 0 40 -47 55 -47c7 0 7 12 7 19v193c0 10 9 19 19 19
s18 -9 18 -19z" />
    <glyph glyph-name="accidentalJohnston13" unicode="&#xe2b6;" horiz-adv-x="244" 
d="M20 96c0 9 8 17 17 17s17 -8 17 -17v-195c0 -9 -8 -17 -17 -17s-17 8 -17 17v195zM188 52c0 20 -16 28 -34 28c-16 0 -38 -15 -46 -20c-4 -2 -6 -4 -11 -4c-9 0 -17 8 -17 17c0 5 2 10 6 13c23 18 35 27 67 27c33 0 71 -19 71 -61c0 -24 -12 -38 -42 -52
c28 -13 42 -33 42 -56c0 -34 -38 -60 -70 -60c-33 0 -64 27 -68 31c-3 3 -6 7 -6 12c0 9 8 17 17 17c5 0 9 -2 12 -5c6 -6 27 -19 45 -19c19 0 34 10 34 24c0 18 -27 44 -66 44c-6 0 -11 5 -11 12s5 12 11 12c38 0 66 17 66 40z" />
    <glyph glyph-name="accidentalJohnston31" unicode="&#xe2b7;" horiz-adv-x="254" 
d="M224 96v-195c0 -9 -8 -17 -17 -17s-17 8 -17 17v195c0 9 8 17 17 17s17 -8 17 -17zM56 52c0 -23 28 -40 66 -40c6 0 11 -5 11 -12s-5 -12 -11 -12c-39 0 -66 -26 -66 -44c0 -14 15 -24 34 -24c18 0 39 13 45 19c3 3 7 5 12 5c9 0 17 -8 17 -17c0 -5 -3 -9 -6 -12
c-4 -4 -35 -31 -68 -31c-32 0 -70 26 -70 60c0 23 14 43 42 56c-30 14 -42 28 -42 52c0 42 38 61 71 61c32 0 44 -9 67 -27c4 -3 6 -8 6 -13c0 -9 -8 -17 -17 -17c-5 0 -7 2 -11 4c-8 5 -30 20 -46 20c-18 0 -34 -8 -34 -28z" />
    <glyph glyph-name="accSagittal5v7KleismaUp" unicode="&#xe300;" horiz-adv-x="249" 
d="M52 160c6 -11 12 -52 28 -100c19 -56 43 -83 77 -83c36 0 35 75 51 75c18 0 21 -19 21 -56c0 -36 -31 -109 -80 -109c-48 0 -76 35 -89 53v-364c0 -10 -4 -19 -20 -19s-20 9 -20 19v529c0 40 4 49 8 55c2 3 7 5 12 5s10 -2 12 -5z" />
    <glyph glyph-name="accSagittal5v7KleismaDown" unicode="&#xe301;" horiz-adv-x="249" 
d="M52 -160c-2 -3 -7 -5 -12 -5s-10 2 -12 5c-4 6 -8 15 -8 55v529c0 10 4 19 20 19s20 -9 20 -19v-364c13 18 41 53 89 53c49 0 80 -73 80 -109c0 -37 -3 -56 -21 -56c-16 0 -15 75 -51 75c-34 0 -58 -27 -77 -83c-16 -48 -22 -89 -28 -100z" />
    <glyph glyph-name="accSagittal5CommaUp" unicode="&#xe302;" horiz-adv-x="277" 
d="M20 -74c0 2 2 4 3 5c76 76 130 148 182 229c2 3 7 5 12 5s10 -2 12 -5c4 -6 8 -15 8 -55v-529c0 -10 -4 -19 -20 -19s-20 9 -20 19v383c0 13 0 38 -23 38c-27 0 -71 -90 -118 -90c-10 0 -36 12 -36 19z" />
    <glyph glyph-name="accSagittal5CommaDown" unicode="&#xe303;" horiz-adv-x="277" 
d="M20 74c0 7 26 19 36 19c47 0 91 -90 118 -90c23 0 23 25 23 38v383c0 10 4 19 20 19s20 -9 20 -19v-529c0 -40 -4 -49 -8 -55c-2 -3 -7 -5 -12 -5s-10 2 -12 5c-52 81 -106 153 -182 229c-1 1 -3 3 -3 5z" />
    <glyph glyph-name="accSagittal7CommaUp" unicode="&#xe304;" horiz-adv-x="277" 
d="M216 -172c-22 0 -14 137 -29 172c-13 32 -31 35 -75 35c-52 0 -52 -63 -52 -76v-383c0 -10 -4 -19 -20 -19s-20 9 -20 19v529c0 40 4 49 8 55c2 3 7 5 12 5s104 -1 120 -8c68 -32 77 -112 77 -226c0 -41 -5 -103 -21 -103z" />
    <glyph glyph-name="accSagittal7CommaDown" unicode="&#xe305;" horiz-adv-x="277" 
d="M216 172c16 0 21 -62 21 -103c0 -114 -9 -194 -77 -226c-16 -7 -115 -8 -120 -8s-10 2 -12 5c-4 6 -8 15 -8 55v529c0 10 4 19 20 19s20 -9 20 -19v-383c0 -13 0 -76 52 -76c44 0 62 3 75 35c15 35 7 172 29 172z" />
    <glyph glyph-name="accSagittal25SmallDiesisUp" unicode="&#xe306;" horiz-adv-x="233" 
d="M213 -424c0 -10 -4 -19 -20 -19s-20 9 -20 19v215c0 13 0 38 -23 38c-27 0 -57 -90 -98 -90c-9 0 -32 12 -32 19c0 2 2 4 3 5c62 71 101 140 150 215c-2 10 -9 19 -23 19c-27 0 -57 -90 -98 -90c-9 0 -32 12 -32 19c0 2 2 4 3 5c67 76 106 148 158 229c2 3 7 5 12 5
s10 -2 12 -5c4 -6 8 -15 8 -55v-529z" />
    <glyph glyph-name="accSagittal25SmallDiesisDown" unicode="&#xe307;" horiz-adv-x="233" 
d="M213 424v-529c0 -40 -4 -49 -8 -55c-2 -3 -7 -5 -12 -5s-10 2 -12 5c-52 81 -91 153 -158 229c-1 1 -3 3 -3 5c0 7 23 19 32 19c41 0 71 -90 98 -90c14 0 21 9 23 19c-49 75 -88 144 -150 215c-1 1 -3 3 -3 5c0 7 23 19 32 19c41 0 71 -90 98 -90c23 0 23 25 23 38v215
c0 10 4 19 20 19s20 -9 20 -19z" />
    <glyph glyph-name="accSagittal35MediumDiesisUp" unicode="&#xe308;" horiz-adv-x="434" 
d="M393 -172c-22 0 -14 137 -29 172c-13 32 -31 35 -75 35c-52 0 -52 -63 -52 -76v-383c0 -10 -4 -19 -20 -19s-20 9 -20 19v383c0 13 0 38 -23 38c-27 0 -71 -90 -118 -90c-10 0 -36 12 -36 19c0 2 2 4 3 5c76 76 131 146 181 228c3 4 7 6 13 6c5 0 104 -1 120 -8
c68 -32 77 -112 77 -226c0 -41 -5 -103 -21 -103z" />
    <glyph glyph-name="accSagittal35MediumDiesisDown" unicode="&#xe309;" horiz-adv-x="434" 
d="M393 172c16 0 21 -62 21 -103c0 -114 -9 -194 -77 -226c-16 -7 -115 -8 -120 -8c-6 0 -10 2 -13 6c-50 82 -105 152 -181 228c-1 1 -3 3 -3 5c0 7 26 19 36 19c47 0 91 -90 118 -90c23 0 23 25 23 38v383c0 10 4 19 20 19s20 -9 20 -19v-383c0 -13 0 -76 52 -76
c44 0 62 3 75 35c15 35 7 172 29 172z" />
    <glyph glyph-name="accSagittal11MediumDiesisUp" unicode="&#xe30a;" horiz-adv-x="388" 
d="M20 -74c0 2 2 4 3 5c67 76 106 148 158 229c2 3 7 5 12 5s10 -2 12 -5c52 -81 93 -153 160 -229c1 -1 3 -3 3 -5c0 -7 -20 -19 -30 -19c-41 0 -74 90 -102 90c-23 0 -23 -25 -23 -38v-383c0 -10 -4 -19 -20 -19s-20 9 -20 19v383c0 13 0 38 -23 38c-27 0 -57 -90 -98 -90
c-9 0 -32 12 -32 19z" />
    <glyph glyph-name="accSagittal11MediumDiesisDown" unicode="&#xe30b;" horiz-adv-x="388" 
d="M20 74c0 7 23 19 32 19c41 0 71 -90 98 -90c23 0 23 25 23 38v383c0 10 4 19 20 19s20 -9 20 -19v-383c0 -13 0 -38 23 -38c28 0 61 90 102 90c10 0 30 -12 30 -19c0 -2 -2 -4 -3 -5c-67 -76 -108 -148 -160 -229c-2 -3 -7 -5 -12 -5s-10 2 -12 5
c-52 81 -91 153 -158 229c-1 1 -3 3 -3 5z" />
    <glyph glyph-name="accSagittal11LargeDiesisUp" unicode="&#xe30c;" horiz-adv-x="434" 
d="M393 -172c-22 0 -14 137 -29 172c-13 32 -31 35 -75 35c-52 0 -52 -63 -52 -76v-383c0 -10 -4 -19 -20 -19s-20 9 -20 19v383c0 13 0 76 -52 76c-44 0 -62 -3 -75 -35c-15 -35 -7 -172 -29 -172c-16 0 -21 62 -21 103c0 114 9 194 77 226c16 7 115 8 120 8s104 -1 120 -8
c68 -32 77 -112 77 -226c0 -41 -5 -103 -21 -103z" />
    <glyph glyph-name="accSagittal11LargeDiesisDown" unicode="&#xe30d;" horiz-adv-x="434" 
d="M393 172c16 0 21 -62 21 -103c0 -114 -9 -194 -77 -226c-16 -7 -115 -8 -120 -8s-104 1 -120 8c-68 32 -77 112 -77 226c0 41 5 103 21 103c22 0 14 -137 29 -172c13 -32 31 -35 75 -35c52 0 52 63 52 76v383c0 10 4 19 20 19s20 -9 20 -19v-383c0 -13 0 -76 52 -76
c44 0 62 3 75 35c15 35 7 172 29 172z" />
    <glyph glyph-name="accSagittal35LargeDiesisUp" unicode="&#xe30e;" horiz-adv-x="434" 
d="M41 -172c-16 0 -21 62 -21 103c0 114 9 194 77 226c16 7 115 8 120 8c6 0 10 -2 13 -6c50 -82 105 -152 181 -228c1 -1 3 -3 3 -5c0 -7 -26 -19 -36 -19c-47 0 -91 90 -118 90c-23 0 -23 -25 -23 -38v-383c0 -10 -4 -19 -20 -19s-20 9 -20 19v383c0 13 0 76 -52 76
c-44 0 -62 -3 -75 -35c-15 -35 -7 -172 -29 -172z" />
    <glyph glyph-name="accSagittal35LargeDiesisDown" unicode="&#xe30f;" horiz-adv-x="434" 
d="M41 172c22 0 14 -137 29 -172c13 -32 31 -35 75 -35c52 0 52 63 52 76v383c0 10 4 19 20 19s20 -9 20 -19v-383c0 -13 0 -38 23 -38c27 0 71 90 118 90c10 0 36 -12 36 -19c0 -2 -2 -4 -3 -5c-76 -76 -131 -146 -181 -228c-3 -4 -7 -6 -13 -6c-5 0 -104 1 -120 8
c-68 32 -77 112 -77 226c0 41 5 103 21 103z" />
    <glyph glyph-name="accSagittalSharp7CDown" unicode="&#xe312;" horiz-adv-x="303" 
d="M262 -172c-22 0 -14 137 -29 172c-6 16 -25 30 -47 35v-459c0 -10 -4 -19 -20 -19s-20 9 -20 19v459h-34c-52 0 -52 -63 -52 -76v-383c0 -10 -4 -19 -20 -19s-20 9 -20 19v529c0 40 4 49 8 55c2 3 7 5 12 5s150 -1 166 -8c68 -32 77 -112 77 -226c0 -41 -5 -103 -21 -103
z" />
    <glyph glyph-name="accSagittalFlat7CUp" unicode="&#xe313;" horiz-adv-x="303" 
d="M262 172c16 0 21 -62 21 -103c0 -114 -9 -194 -77 -226c-16 -7 -161 -8 -166 -8s-10 2 -12 5c-4 6 -8 15 -8 55v529c0 10 4 19 20 19s20 -9 20 -19v-383c0 -13 0 -76 52 -76h34v459c0 10 4 19 20 19s20 -9 20 -19v-459c22 5 41 19 47 35c15 35 7 172 29 172z" />
    <glyph glyph-name="accSagittalSharp5CDown" unicode="&#xe314;" horiz-adv-x="323" 
d="M303 -74c0 -7 -26 -19 -36 -19c-15 0 -47 18 -81 37v-368c0 -10 -4 -19 -20 -19s-20 9 -20 19v392c-28 16 -53 29 -63 29c-23 0 -23 -25 -23 -38v-383c0 -10 -4 -19 -20 -19s-20 9 -20 19v529c0 40 4 49 8 55c2 3 7 5 12 5s10 -2 12 -5c63 -74 172 -153 248 -229
c1 -1 3 -3 3 -5z" />
    <glyph glyph-name="accSagittalFlat5CUp" unicode="&#xe315;" horiz-adv-x="323" 
d="M303 74c0 -2 -2 -4 -3 -5c-76 -76 -185 -155 -248 -229c-2 -3 -7 -5 -12 -5s-10 2 -12 5c-4 6 -8 15 -8 55v529c0 10 4 19 20 19s20 -9 20 -19v-383c0 -13 0 -38 23 -38c10 0 35 13 63 29v392c0 10 4 19 20 19s20 -9 20 -19v-368c34 19 66 37 81 37c10 0 36 -12 36 -19z
" />
    <glyph glyph-name="accSagittalSharp" unicode="&#xe318;" horiz-adv-x="434" 
d="M300 -35v-389c0 -10 -4 -19 -20 -19s-20 9 -20 19v404c0 11 -29 17 -43 17s-43 -6 -43 -17v-404c0 -10 -4 -19 -20 -19s-20 9 -20 19v389c-23 -26 -50 -58 -78 -58c-10 0 -36 12 -36 19c0 2 2 4 3 5c76 76 130 148 182 229c2 3 7 5 12 5s10 -2 12 -5
c52 -81 106 -153 182 -229c1 -1 3 -3 3 -5c0 -7 -26 -19 -36 -19c-28 0 -55 32 -78 58z" />
    <glyph glyph-name="accSagittalFlat" unicode="&#xe319;" horiz-adv-x="434" 
d="M300 35c23 26 50 58 78 58c10 0 36 -12 36 -19c0 -2 -2 -4 -3 -5c-76 -76 -130 -148 -182 -229c-2 -3 -7 -5 -12 -5s-10 2 -12 5c-52 81 -106 153 -182 229c-1 1 -3 3 -3 5c0 7 26 19 36 19c28 0 55 -32 78 -58v389c0 10 4 19 20 19s20 -9 20 -19v-404
c0 -11 29 -17 43 -17s43 6 43 17v404c0 10 4 19 20 19s20 -9 20 -19v-389z" />
    <glyph glyph-name="accSagittalSharp5CUp" unicode="&#xe31e;" horiz-adv-x="409" 
d="M20 -140c0 2 2 4 3 5c76 76 251 221 314 295c2 3 7 5 12 5s10 -2 12 -5c4 -6 8 -15 8 -55v-529c0 -10 -4 -19 -20 -19s-20 9 -20 19v383c0 13 0 38 -23 38c-7 0 -22 -9 -43 -24v-397c0 -10 -4 -19 -20 -19s-20 9 -20 19v368c-21 -15 -44 -32 -66 -48v-320
c0 -10 -4 -19 -20 -19s-20 9 -20 19v293c-26 -17 -48 -28 -61 -28c-10 0 -36 12 -36 19z" />
    <glyph glyph-name="accSagittalFlat5CDown" unicode="&#xe31f;" horiz-adv-x="409" 
d="M20 140c0 7 26 19 36 19c13 0 35 -11 61 -28v293c0 10 4 19 20 19s20 -9 20 -19v-320c22 -16 45 -33 66 -48v368c0 10 4 19 20 19s20 -9 20 -19v-397c21 -15 36 -24 43 -24c23 0 23 25 23 38v383c0 10 4 19 20 19s20 -9 20 -19v-529c0 -40 -4 -49 -8 -55
c-2 -3 -7 -5 -12 -5s-10 2 -12 5c-63 74 -238 219 -314 295c-1 1 -3 3 -3 5z" />
    <glyph glyph-name="accSagittalSharp7CUp" unicode="&#xe320;" horiz-adv-x="389" 
d="M348 -172c-22 0 -14 137 -29 172c-6 16 -25 30 -47 35v-459c0 -10 -4 -19 -20 -19s-20 9 -20 19v459h-66v-459c0 -10 -4 -19 -20 -19s-20 9 -20 19v459h-14c-52 0 -52 -63 -52 -76v-383c0 -10 -4 -19 -20 -19s-20 9 -20 19v529c0 40 4 49 8 55c2 3 7 5 12 5
s236 -1 252 -8c68 -32 77 -112 77 -226c0 -41 -5 -103 -21 -103z" />
    <glyph glyph-name="accSagittalFlat7CDown" unicode="&#xe321;" horiz-adv-x="389" 
d="M348 172c16 0 21 -62 21 -103c0 -114 -9 -194 -77 -226c-16 -7 -247 -8 -252 -8s-10 2 -12 5c-4 6 -8 15 -8 55v529c0 10 4 19 20 19s20 -9 20 -19v-383c0 -13 0 -76 52 -76h14v459c0 10 4 19 20 19s20 -9 20 -19v-459h66v459c0 10 4 19 20 19s20 -9 20 -19v-459
c22 5 41 19 47 35c15 35 7 172 29 172z" />
    <glyph glyph-name="accSagittalSharp11MUp" unicode="&#xe326;" horiz-adv-x="520" 
d="M386 -35v-389c0 -10 -4 -19 -20 -19s-20 9 -20 19v404c0 8 -40 15 -66 17v-421c0 -10 -4 -19 -20 -19s-20 9 -20 19v421c-26 -2 -66 -9 -66 -17v-404c0 -10 -4 -19 -20 -19s-20 9 -20 19v389c-23 -26 -50 -58 -78 -58c-10 0 -36 12 -36 19c0 2 2 4 3 5
c76 76 165 154 225 229c2 3 7 5 12 5s10 -2 12 -5c60 -75 149 -153 225 -229c1 -1 3 -3 3 -5c0 -7 -26 -19 -36 -19c-28 0 -55 32 -78 58z" />
    <glyph glyph-name="accSagittalFlat11MDown" unicode="&#xe327;" horiz-adv-x="520" 
d="M386 35c23 26 50 58 78 58c10 0 36 -12 36 -19c0 -2 -2 -4 -3 -5c-76 -76 -165 -154 -225 -229c-2 -3 -7 -5 -12 -5s-10 2 -12 5c-60 75 -149 153 -225 229c-1 1 -3 3 -3 5c0 7 26 19 36 19c28 0 55 -32 78 -58v389c0 10 4 19 20 19s20 -9 20 -19v-404
c0 -8 40 -15 66 -17v421c0 10 4 19 20 19s20 -9 20 -19v-421c26 2 66 9 66 17v404c0 10 4 19 20 19s20 -9 20 -19v-389z" />
    <glyph glyph-name="accSagittalDoubleSharp7CDown" unicode="&#xe32e;" horiz-adv-x="389" 
d="M20 -363l107 322c2 6 3 21 3 41c0 25 -10 35 -33 35c-26 0 -35 31 -35 70c0 40 4 49 8 55c2 3 7 5 12 5s194 -1 210 -8c68 -32 77 -112 77 -226c0 -41 -5 -103 -21 -103c-22 0 -18 137 -33 172c-6 16 -32 35 -60 35h-58c-24 0 -33 -12 -33 -35c0 -20 1 -35 3 -41
l107 -322c0 -10 -4 -19 -20 -19s-17 10 -20 19l-87 257l-87 -257c-3 -9 -4 -19 -20 -19s-20 9 -20 19z" />
    <glyph glyph-name="accSagittalDoubleFlat7CUp" unicode="&#xe32f;" horiz-adv-x="389" 
d="M20 363c0 10 4 19 20 19s17 -10 20 -19l87 -257l87 257c3 9 4 19 20 19s20 -9 20 -19l-107 -322c-2 -6 -3 -21 -3 -41c0 -23 9 -35 33 -35h58c28 0 54 19 60 35c15 35 11 172 33 172c16 0 21 -62 21 -103c0 -114 -9 -194 -77 -226c-16 -7 -205 -8 -210 -8s-10 2 -12 5
c-4 6 -8 15 -8 55c0 39 9 70 35 70c23 0 33 10 33 35c0 20 -1 35 -3 41z" />
    <glyph glyph-name="accSagittalDoubleSharp5CDown" unicode="&#xe330;" horiz-adv-x="401" 
d="M69 160c2 3 7 5 12 5s9 -2 12 -5c73 -75 199 -150 285 -229c1 -1 3 -3 3 -5c0 -7 -26 -19 -36 -19c-39 0 -127 90 -155 90c-17 0 -24 -7 -26 -17c-2 -9 2 -18 3 -21l107 -322c0 -10 -4 -19 -20 -19s-17 10 -20 19l-87 257l-87 -257c-3 -9 -4 -19 -20 -19s-20 9 -20 19
l107 322c2 5 3 8 3 21c0 20 -14 40 -33 55c-24 19 -35 35 -35 70c0 40 3 49 7 55z" />
    <glyph glyph-name="accSagittalDoubleFlat5CUp" unicode="&#xe331;" horiz-adv-x="401" 
d="M69 -160c-4 6 -7 15 -7 55c0 35 11 51 35 70c19 15 33 35 33 55c0 13 -1 16 -3 21l-107 322c0 10 4 19 20 19s17 -10 20 -19l87 -257l87 257c3 9 4 19 20 19s20 -9 20 -19l-107 -322c-1 -3 -5 -12 -3 -21c2 -10 9 -17 26 -17c28 0 116 90 155 90c10 0 36 -12 36 -19
c0 -2 -2 -4 -3 -5c-86 -79 -212 -154 -285 -229c-3 -3 -7 -5 -12 -5s-10 2 -12 5z" />
    <glyph glyph-name="accSagittalDoubleSharp" unicode="&#xe334;" horiz-adv-x="434" 
d="M229 160c52 -81 106 -153 182 -229c1 -1 3 -3 3 -5c0 -7 -26 -19 -36 -19c-47 0 -91 90 -118 90c-18 0 -26 -10 -26 -17c0 -12 2 -18 3 -21l107 -322c0 -10 -4 -19 -20 -19s-17 10 -20 19l-87 257l-87 -257c-3 -9 -4 -19 -20 -19s-20 9 -20 19l107 322c1 3 3 9 3 21
c0 7 -8 17 -26 17c-27 0 -71 -90 -118 -90c-10 0 -36 12 -36 19c0 2 2 4 3 5c76 76 130 148 182 229c2 3 7 5 12 5s10 -2 12 -5z" />
    <glyph glyph-name="accSagittalDoubleFlat" unicode="&#xe335;" horiz-adv-x="434" 
d="M229 -160c-2 -3 -7 -5 -12 -5s-10 2 -12 5c-52 81 -106 153 -182 229c-1 1 -3 3 -3 5c0 7 26 19 36 19c47 0 91 -90 118 -90c18 0 26 10 26 17c0 12 -2 18 -3 21l-107 322c0 10 4 19 20 19s17 -10 20 -19l87 -257l87 257c3 9 4 19 20 19s20 -9 20 -19l-107 -322
c-1 -3 -3 -9 -3 -21c0 -7 8 -17 26 -17c27 0 71 90 118 90c10 0 36 -12 36 -19c0 -2 -2 -4 -3 -5c-76 -76 -130 -148 -182 -229z" />
    <glyph glyph-name="accidentalWyschnegradsky1TwelfthsSharp" unicode="&#xe420;" horiz-adv-x="255" 
d="M57 -334c0 -10 -9 -19 -19 -19s-18 9 -18 19v669c0 8 5 15 13 18l175 64c2 1 5 1 7 1c11 0 20 -9 20 -20v-60c0 -8 -5 -16 -13 -19l-165 -59v-594z" />
    <glyph glyph-name="accidentalWyschnegradsky2TwelfthsSharp" unicode="&#xe421;" horiz-adv-x="255" 
d="M57 -334c0 -10 -9 -19 -19 -19s-18 9 -18 19v669c0 8 5 15 13 18l175 64c2 1 5 1 7 1c11 0 20 -9 20 -20v-60c0 -8 -5 -16 -13 -19l-165 -59v-58l151 55c2 1 5 1 7 1c11 0 20 -9 20 -20v-60c0 -8 -5 -16 -13 -19l-165 -59v-434z" />
    <glyph glyph-name="accidentalWyschnegradsky3TwelfthsSharp" unicode="&#xe422;" horiz-adv-x="255" 
d="M47 51c-2 -1 -5 -1 -7 -1c-11 0 -20 9 -20 20v60c0 8 5 15 13 18l76 28v158c0 10 8 19 18 19s19 -9 19 -19v-145l62 23c2 1 5 1 7 1c11 0 20 -9 20 -20v-60c0 -8 -5 -16 -13 -19l-76 -27v-161l62 23c2 1 5 1 7 1c11 0 20 -9 20 -20v-60c0 -8 -5 -16 -13 -19l-76 -27v-158
c0 -10 -9 -19 -19 -19s-18 9 -18 19v144l-62 -22c-2 -1 -5 -1 -7 -1c-11 0 -20 9 -20 20v60c0 8 5 15 13 18l76 28v160z" />
    <glyph glyph-name="accidentalWyschnegradsky4TwelfthsSharp" unicode="&#xe423;" horiz-adv-x="344" 
d="M47 51c-2 -1 -5 -1 -7 -1c-11 0 -20 9 -20 20v60c0 8 5 15 13 18l76 28v159c0 8 5 15 13 18l175 64c2 1 5 1 7 1c11 0 20 -9 20 -20v-60c0 -8 -5 -16 -13 -19l-165 -59v-71l62 23c2 1 5 1 7 1c11 0 20 -9 20 -20v-60c0 -8 -5 -16 -13 -19l-76 -27v-161l62 23c2 1 5 1 7 1
c11 0 20 -9 20 -20v-60c0 -8 -5 -16 -13 -19l-76 -27v-158c0 -10 -9 -19 -19 -19s-18 9 -18 19v144l-62 -22c-2 -1 -5 -1 -7 -1c-11 0 -20 9 -20 20v60c0 8 5 15 13 18l76 28v160z" />
    <glyph glyph-name="accidentalWyschnegradsky5TwelfthsSharp" unicode="&#xe424;" horiz-adv-x="344" 
d="M47 51c-2 -1 -5 -1 -7 -1c-11 0 -20 9 -20 20v60c0 8 5 15 13 18l76 28v332c0 8 5 15 13 18l175 64c2 1 5 1 7 1c11 0 20 -9 20 -20v-60c0 -8 -5 -16 -13 -19l-165 -59v-71l151 55c2 1 5 1 7 1c11 0 20 -9 20 -20v-60c0 -8 -5 -16 -13 -19l-165 -59v-71l62 23
c2 1 5 1 7 1c11 0 20 -9 20 -20v-60c0 -8 -5 -16 -13 -19l-76 -27v-161l62 23c2 1 5 1 7 1c11 0 20 -9 20 -20v-60c0 -8 -5 -16 -13 -19l-76 -27v-158c0 -10 -9 -19 -19 -19s-18 9 -18 19v144l-62 -22c-2 -1 -5 -1 -7 -1c-11 0 -20 9 -20 20v60c0 8 5 15 13 18l76 28v160z
" />
    <glyph glyph-name="accidentalWyschnegradsky6TwelfthsSharp" unicode="&#xe425;" horiz-adv-x="315" 
d="M236 -312c0 -10 -8 -19 -18 -19s-19 9 -19 19v145l-83 -31v-158c0 -10 -9 -19 -19 -19s-18 9 -18 19v145l-32 -12c-2 -1 -5 -1 -7 -1c-11 0 -20 9 -20 20v60c0 8 5 16 13 19l46 16v160l-32 -11c-2 -1 -5 -1 -7 -1c-11 0 -20 9 -20 20v60c0 8 5 15 13 18l46 17v158
c0 10 8 19 18 19s19 -9 19 -19v-145l83 31v158c0 10 9 19 19 19s18 -9 18 -19v-145l32 12c2 1 5 1 7 1c11 0 20 -9 20 -20v-60c0 -8 -5 -16 -13 -19l-46 -16v-160l32 11c2 1 5 1 7 1c11 0 20 -9 20 -20v-60c0 -8 -5 -15 -13 -18l-46 -17v-158zM116 65v-160l83 30v160z" />
    <glyph glyph-name="accidentalWyschnegradsky7TwelfthsSharp" unicode="&#xe426;" horiz-adv-x="434" 
d="M116 65v-160l83 30v160zM236 -312c0 -10 -8 -19 -18 -19s-19 9 -19 19v145l-83 -31v-158c0 -10 -9 -19 -19 -19s-18 9 -18 19v145l-32 -12c-2 -1 -5 -1 -7 -1c-11 0 -20 9 -20 20v60c0 8 5 16 13 19l46 16v160l-32 -11c-2 -1 -5 -1 -7 -1c-11 0 -20 9 -20 20v60
c0 8 5 15 13 18l46 17v158c0 10 8 19 18 19s19 -9 19 -19v-145l83 31v137c0 8 5 15 13 18l175 64c2 1 5 1 7 1c11 0 20 -9 20 -20v-60c0 -8 -5 -16 -13 -19l-165 -59v-49l32 12c2 1 5 1 7 1c11 0 20 -9 20 -20v-60c0 -8 -5 -16 -13 -19l-46 -16v-160l32 11c2 1 5 1 7 1
c11 0 20 -9 20 -20v-60c0 -8 -5 -15 -13 -18l-46 -17v-158z" />
    <glyph glyph-name="accidentalWyschnegradsky8TwelfthsSharp" unicode="&#xe427;" horiz-adv-x="434" 
d="M116 65v-160l83 30v160zM236 -312c0 -10 -8 -19 -18 -19s-19 9 -19 19v145l-83 -31v-158c0 -10 -9 -19 -19 -19s-18 9 -18 19v145l-32 -12c-2 -1 -5 -1 -7 -1c-11 0 -20 9 -20 20v60c0 8 5 16 13 19l46 16v160l-32 -11c-2 -1 -5 -1 -7 -1c-11 0 -20 9 -20 20v60
c0 8 5 15 13 18l46 17v158c0 10 8 19 18 19s19 -9 19 -19v-145l83 31v297c0 8 5 15 13 18l175 64c2 1 5 1 7 1c11 0 20 -9 20 -20v-60c0 -8 -5 -16 -13 -19l-165 -59v-58l151 55c2 1 5 1 7 1c11 0 20 -9 20 -20v-60c0 -8 -5 -16 -13 -19l-165 -59v-49l32 12c2 1 5 1 7 1
c11 0 20 -9 20 -20v-60c0 -8 -5 -16 -13 -19l-46 -16v-160l32 11c2 1 5 1 7 1c11 0 20 -9 20 -20v-60c0 -8 -5 -15 -13 -18l-46 -17v-158z" />
    <glyph glyph-name="accidentalWyschnegradsky9TwelfthsSharp" unicode="&#xe428;" horiz-adv-x="387" 
d="M175 -87v160l-59 -21v-160zM289 -318c-9 0 -18 8 -18 19v145l-59 -22v-158c0 -10 -9 -19 -19 -19s-18 9 -18 19v145l-59 -22v-158c0 -9 -10 -19 -19 -19s-18 8 -18 19v145l-32 -12c-1 -1 -4 -1 -7 -1c-10 0 -20 10 -20 20v60c0 9 4 16 13 19l46 16v160l-32 -11
c-1 -1 -4 -1 -7 -1c-10 0 -20 10 -20 20v60c0 9 4 15 13 18l46 17v158c0 11 9 19 18 19s19 -10 19 -19v-145l59 22v158c0 10 8 19 18 19s19 -9 19 -19v-145l59 22v158c0 11 9 19 18 19s19 -10 19 -19v-145l32 12c1 1 4 1 7 1c10 0 20 -10 20 -20v-60c0 -9 -4 -16 -13 -19
l-46 -16v-160l32 11c1 1 4 1 7 1c10 0 20 -10 20 -20v-60c0 -9 -4 -15 -13 -18l-46 -17v-158c0 -9 -10 -19 -19 -19zM271 -52v160l-59 -21v-160z" />
    <glyph glyph-name="accidentalWyschnegradsky10TwelfthsSharp" unicode="&#xe429;" horiz-adv-x="506" 
d="M271 -52v160l-59 -21v-160zM289 -318c-9 0 -18 8 -18 19v145l-59 -22v-158c0 -10 -9 -19 -19 -19s-18 9 -18 19v145l-59 -22v-158c0 -9 -10 -19 -19 -19s-18 8 -18 19v145l-32 -12c-1 -1 -4 -1 -7 -1c-10 0 -20 10 -20 20v60c0 9 4 16 13 19l46 16v160l-32 -11
c-1 -1 -4 -1 -7 -1c-10 0 -20 10 -20 20v60c0 9 4 15 13 18l46 17v158c0 11 9 19 18 19s19 -10 19 -19v-145l59 22v158c0 10 8 19 18 19s19 -9 19 -19v-145l59 22v124c0 8 5 15 13 18l175 64c2 1 5 1 7 1c11 0 20 -9 20 -20v-60c0 -8 -5 -16 -13 -19l-165 -59v-36l32 12
c1 1 4 1 7 1c10 0 20 -10 20 -20v-60c0 -9 -4 -16 -13 -19l-46 -16v-160l32 11c1 1 4 1 7 1c10 0 20 -10 20 -20v-60c0 -9 -4 -15 -13 -18l-46 -17v-158c0 -9 -10 -19 -19 -19zM175 -87v160l-59 -21v-160z" />
    <glyph glyph-name="accidentalWyschnegradsky11TwelfthsSharp" unicode="&#xe42a;" horiz-adv-x="506" 
d="M271 -52v160l-59 -21v-160zM289 -318c-9 0 -18 8 -18 19v145l-59 -22v-158c0 -10 -9 -19 -19 -19s-18 9 -18 19v145l-59 -22v-158c0 -9 -10 -19 -19 -19s-18 8 -18 19v145l-32 -12c-1 -1 -4 -1 -7 -1c-10 0 -20 10 -20 20v60c0 9 4 16 13 19l46 16v160l-32 -11
c-1 -1 -4 -1 -7 -1c-10 0 -20 10 -20 20v60c0 9 4 15 13 18l46 17v158c0 11 9 19 18 19s19 -10 19 -19v-145l59 22v158c0 10 8 19 18 19s19 -9 19 -19v-145l59 22v284c0 8 5 15 13 18l175 64c2 1 5 1 7 1c11 0 20 -9 20 -20v-60c0 -8 -5 -16 -13 -19l-165 -59v-58l151 55
c2 1 5 1 7 1c11 0 20 -9 20 -20v-60c0 -8 -5 -16 -13 -19l-165 -59v-36l32 12c1 1 4 1 7 1c10 0 20 -10 20 -20v-60c0 -9 -4 -16 -13 -19l-46 -16v-160l32 11c1 1 4 1 7 1c10 0 20 -10 20 -20v-60c0 -9 -4 -15 -13 -18l-46 -17v-158c0 -9 -10 -19 -19 -19zM175 -87v160
l-59 -21v-160z" />
    <glyph glyph-name="accidentalWyschnegradsky1TwelfthsFlat" unicode="&#xe42b;" horiz-adv-x="304" 
d="M173 69c0 14 -21 16 -35 16c-27 0 -63 -23 -81 -41v-333c0 -10 -9 -19 -19 -19s-18 9 -18 19v746c0 8 5 15 13 18l175 64c2 1 5 1 7 1c11 0 20 -9 20 -20v-60c0 -8 -5 -16 -13 -19l-165 -59v-58l151 55c2 1 5 1 7 1c11 0 20 -9 20 -20v-60c0 -8 -5 -16 -13 -19l-165 -59
v-122c27 23 51 35 84 42c10 2 25 4 40 4c29 0 59 -6 59 -23c0 -60 -104 -124 -104 -152c0 -12 15 -13 29 -13c32 0 82 24 106 24c8 0 13 -1 13 -4c0 -20 -81 -68 -111 -77c-10 -3 -28 -6 -41 -6c-28 0 -57 6 -57 22c0 59 98 123 98 152z" />
    <glyph glyph-name="accidentalWyschnegradsky2TwelfthsFlat" unicode="&#xe42c;" horiz-adv-x="304" 
d="M57 100c27 23 51 35 84 42c10 2 25 4 40 4c29 0 59 -6 59 -23c0 -60 -104 -124 -104 -152c0 -12 15 -13 29 -13c32 0 82 24 106 24c8 0 13 -1 13 -4c0 -20 -81 -68 -111 -77c-10 -3 -28 -6 -41 -6c-28 0 -57 6 -57 22c0 59 98 123 98 152c0 14 -21 16 -35 16
c-27 0 -63 -23 -81 -41v-333c0 -10 -9 -19 -19 -19s-18 9 -18 19v746c0 8 5 15 13 18l175 64c2 1 5 1 7 1c11 0 20 -9 20 -20v-60c0 -8 -5 -16 -13 -19l-165 -59v-282z" />
    <glyph glyph-name="accidentalWyschnegradsky3TwelfthsFlat" unicode="&#xe42d;" horiz-adv-x="304" 
d="M173 69c0 14 -21 16 -35 16c-27 0 -63 -23 -81 -41v-333c0 -10 -9 -19 -19 -19s-18 9 -18 19v668c0 10 8 19 18 19s19 -9 19 -19v-279c27 23 51 35 84 42c10 2 25 4 40 4c29 0 59 -6 59 -23c0 -60 -104 -124 -104 -152c0 -12 15 -13 29 -13c32 0 82 24 106 24
c8 0 13 -1 13 -4c0 -20 -81 -68 -111 -77c-10 -3 -28 -6 -41 -6c-28 0 -57 6 -57 22c0 59 98 123 98 152z" />
    <glyph glyph-name="accidentalWyschnegradsky4TwelfthsFlat" unicode="&#xe42e;" horiz-adv-x="267" 
d="M55 -163c-14 0 -23 11 -23 25l-12 595c0 8 5 15 13 18l175 64c2 1 5 1 7 1c11 0 20 -9 20 -20v-60c0 -8 -5 -16 -13 -19l-149 -53l-2 -59l137 50c2 1 5 1 7 1c11 0 20 -9 20 -20v-60c0 -8 -5 -16 -13 -19l-153 -55l-2 -114c27 23 57 34 91 34c52 0 89 -50 89 -102
c0 -39 -28 -76 -49 -94c-19 -16 -79 -60 -98 -75c-13 -10 -23 -38 -45 -38zM170 37c0 31 -14 67 -43 67c-32 0 -53 -31 -53 -63l-1 -66v-11c0 -25 1 -47 4 -66c37 32 54 43 77 84c11 19 16 37 16 55z" />
    <glyph glyph-name="accidentalWyschnegradsky5TwelfthsFlat" unicode="&#xe42f;" horiz-adv-x="267" 
d="M55 -163c-14 0 -23 11 -23 25l-12 595c0 8 5 15 13 18l175 64c2 1 5 1 7 1c11 0 20 -9 20 -20v-60c0 -8 -5 -16 -13 -19l-149 -53l-6 -276c27 23 57 34 91 34c52 0 89 -50 89 -102c0 -39 -28 -76 -49 -94c-19 -16 -79 -60 -98 -75c-13 -10 -23 -38 -45 -38zM170 37
c0 31 -14 67 -43 67c-32 0 -53 -31 -53 -63l-1 -66v-11c0 -25 1 -47 4 -66c37 32 54 43 77 84c11 19 16 37 16 55z" />
    <glyph glyph-name="accidentalWyschnegradsky6TwelfthsFlat" unicode="&#xe430;" horiz-adv-x="267" 
d="M170 37c0 31 -14 67 -43 67c-32 0 -53 -31 -53 -63l-1 -66v-11c0 -25 1 -47 4 -66c37 32 54 43 77 84c11 19 16 37 16 55zM55 -163c-14 0 -23 11 -23 25l-12 595c9 5 18 8 27 8s18 -3 27 -8l-7 -345c27 23 57 34 91 34c52 0 89 -50 89 -102c0 -39 -28 -76 -49 -94
c-19 -16 -79 -60 -98 -75c-13 -10 -23 -38 -45 -38z" />
    <glyph glyph-name="accidentalWyschnegradsky7TwelfthsFlat" unicode="&#xe431;" horiz-adv-x="494" 
d="M170 37c0 31 -14 67 -43 67c-32 0 -53 -31 -53 -63l-1 -66v-11c0 -25 1 -47 4 -66c37 32 54 43 77 84c11 19 16 37 16 55zM55 -163c-14 0 -23 11 -23 25l-12 595c9 5 18 8 27 8s18 -3 27 -8l-7 -345c27 23 57 34 91 34c20 0 38 -7 52 -19v330c0 8 5 15 13 18l175 64
c2 1 5 1 7 1c11 0 20 -9 20 -20v-60c0 -8 -5 -16 -13 -19l-165 -59v-58l151 55c2 1 5 1 7 1c11 0 20 -9 20 -20v-60c0 -8 -5 -16 -13 -19l-165 -59v-122c27 23 51 35 84 42c10 2 25 4 40 4c29 0 59 -6 59 -23c0 -60 -104 -124 -104 -152c0 -12 15 -13 29 -13
c32 0 82 24 106 24c8 0 13 -1 13 -4c0 -20 -81 -68 -111 -77c-10 -3 -28 -6 -41 -6c-28 0 -57 6 -57 22c0 59 98 123 98 152c0 14 -21 16 -35 16c-27 0 -63 -23 -81 -41v-333c0 -10 -9 -19 -19 -19s-18 9 -18 19v251c-21 -24 -84 -67 -110 -87c-13 -10 -23 -38 -45 -38z" />
    <glyph glyph-name="accidentalWyschnegradsky8TwelfthsFlat" unicode="&#xe432;" horiz-adv-x="494" 
d="M170 37c0 31 -14 67 -43 67c-32 0 -53 -31 -53 -63l-1 -66v-11c0 -25 1 -47 4 -66c37 32 54 43 77 84c11 19 16 37 16 55zM247 100c27 23 51 35 84 42c10 2 25 4 40 4c29 0 59 -6 59 -23c0 -60 -104 -124 -104 -152c0 -12 15 -13 29 -13c32 0 82 24 106 24
c8 0 13 -1 13 -4c0 -20 -81 -68 -111 -77c-10 -3 -28 -6 -41 -6c-28 0 -57 6 -57 22c0 59 98 123 98 152c0 14 -21 16 -35 16c-27 0 -63 -23 -81 -41v-333c0 -10 -9 -19 -19 -19s-18 9 -18 19v251c-21 -24 -84 -67 -110 -87c-13 -10 -23 -38 -45 -38c-14 0 -23 11 -23 25
l-12 595c9 5 18 8 27 8s18 -3 27 -8l-7 -345c27 23 57 34 91 34c20 0 38 -7 52 -19v330c0 8 5 15 13 18l175 64c2 1 5 1 7 1c11 0 20 -9 20 -20v-60c0 -8 -5 -16 -13 -19l-165 -59v-282z" />
    <glyph glyph-name="accidentalWyschnegradsky9TwelfthsFlat" unicode="&#xe433;" horiz-adv-x="494" 
d="M55 -163c-14 0 -23 11 -23 25l-12 595c9 5 18 8 27 8s18 -3 27 -8l-7 -345c27 23 57 34 91 34c20 0 38 -7 52 -19v252c0 10 8 19 18 19s19 -9 19 -19v-279c27 23 51 35 84 42c10 2 25 4 40 4c29 0 59 -6 59 -23c0 -60 -104 -124 -104 -152c0 -12 15 -13 29 -13
c32 0 82 24 106 24c8 0 13 -1 13 -4c0 -20 -81 -68 -111 -77c-10 -3 -28 -6 -41 -6c-28 0 -57 6 -57 22c0 59 98 123 98 152c0 14 -21 16 -35 16c-27 0 -63 -23 -81 -41v-333c0 -10 -9 -19 -19 -19s-18 9 -18 19v251c-21 -24 -84 -67 -110 -87c-13 -10 -23 -38 -45 -38z
M170 37c0 31 -14 67 -43 67c-32 0 -53 -31 -53 -63l-1 -66v-11c0 -25 1 -47 4 -66c37 32 54 43 77 84c11 19 16 37 16 55z" />
    <glyph glyph-name="accidentalWyschnegradsky10TwelfthsFlat" unicode="&#xe434;" horiz-adv-x="429" 
d="M64 -26v-10c0 -23 1 -45 4 -68c39 38 71 86 71 141c0 32 -6 67 -33 67c-28 0 -40 -32 -40 -63zM194 -138l-2 106c-27 -34 -66 -62 -98 -93c-13 -13 -19 -38 -39 -38c-13 0 -23 11 -23 25l-12 595c8 5 18 8 27 8s19 -3 27 -8l-7 -345c17 21 43 34 70 34c20 0 38 -8 52 -21
l-7 332c0 8 5 15 13 18l175 64c2 1 5 1 7 1c11 0 20 -9 20 -20v-60c0 -8 -5 -16 -13 -19l-149 -53l-1 -59l136 50c2 1 5 1 7 1c11 0 20 -9 20 -20v-60c0 -8 -5 -16 -13 -19l-152 -54l-2 -115c24 21 55 34 87 34c53 0 92 -47 92 -101c0 -80 -86 -118 -147 -170
c-15 -13 -23 -38 -44 -38c-13 0 -24 11 -24 25zM237 41l-1 -66c0 -4 -1 -7 -1 -11c0 -22 1 -44 4 -66c44 37 87 82 87 139c0 33 -11 67 -40 67c-30 0 -49 -30 -49 -63z" />
    <glyph glyph-name="accidentalWyschnegradsky11TwelfthsFlat" unicode="&#xe435;" horiz-adv-x="429" 
d="M64 -26v-10c0 -23 1 -45 4 -68c39 38 71 86 71 141c0 32 -6 67 -33 67c-28 0 -40 -32 -40 -63zM194 -138l-2 106c-27 -34 -66 -62 -98 -93c-13 -13 -19 -38 -39 -38c-13 0 -23 11 -23 25l-12 595c8 5 18 8 27 8s19 -3 27 -8l-7 -345c17 21 43 34 70 34c20 0 38 -8 52 -21
l-7 332c0 8 5 15 13 18l175 64c2 1 5 1 7 1c11 0 20 -9 20 -20v-60c0 -8 -5 -16 -13 -19l-149 -53c-2 -92 -3 -184 -5 -276c24 21 55 34 87 34c53 0 92 -47 92 -101c0 -80 -86 -118 -147 -170c-15 -13 -23 -38 -44 -38c-13 0 -24 11 -24 25zM237 41l-1 -66
c0 -4 -1 -7 -1 -11c0 -22 1 -44 4 -66c44 37 87 82 87 139c0 33 -11 67 -40 67c-30 0 -49 -30 -49 -63z" />
    <glyph glyph-name="accidentalBuyukMucennebFlat" unicode="&#xe440;" horiz-adv-x="320" 
d="M268 337c2 1 5 1 7 1c11 0 20 -9 20 -20v-42c0 -8 -5 -16 -13 -19c0 0 -107 -39 -160 -58l-2 -87c25 21 58 34 91 34c52 0 89 -48 89 -102c0 -80 -86 -117 -147 -169c-15 -13 -24 -38 -45 -38c-13 0 -23 11 -23 25l-6 321l-32 -11c-2 -1 -5 -1 -7 -1c-11 0 -20 9 -20 20
v42c0 8 5 15 13 18l44 16l-1 42l-29 -10c-2 -1 -5 -1 -7 -1c-11 0 -20 9 -20 20v42c0 8 5 15 13 18l41 15l-1 64c8 5 18 8 27 8s19 -3 27 -8l-1 -45l142 52c2 1 5 1 7 1c11 0 20 -9 20 -20v-42c0 -8 -5 -16 -13 -19c0 0 -104 -38 -158 -57l-1 -43zM127 41l-1 -66v-11
c0 -22 1 -44 4 -66c45 38 93 80 93 139c0 33 -14 67 -43 67c-31 0 -53 -30 -53 -63z" />
    <glyph glyph-name="accidentalKucukMucennebFlat" unicode="&#xe441;" horiz-adv-x="267" 
d="M74 41l-1 -66v-11c0 -22 1 -44 4 -66c45 38 93 80 93 139c0 33 -14 67 -43 67c-31 0 -53 -30 -53 -63zM32 -138l-12 595c8 5 18 8 27 8s19 -3 27 -8l-7 -345c25 21 58 34 91 34c52 0 89 -48 89 -102c0 -80 -86 -117 -147 -169c-15 -13 -24 -38 -45 -38
c-13 0 -23 11 -23 25z" />
    <glyph glyph-name="accidentalBakiyeFlat" unicode="&#xe442;" horiz-adv-x="320" 
d="M127 41l-1 -66v-11c0 -22 1 -44 4 -66c45 38 93 80 93 139c0 33 -14 67 -43 67c-31 0 -53 -30 -53 -63zM268 337c2 1 5 1 7 1c11 0 20 -9 20 -20v-42c0 -8 -5 -16 -13 -19c0 0 -107 -39 -160 -58l-2 -87c25 21 58 34 91 34c52 0 89 -48 89 -102c0 -80 -86 -117 -147 -169
c-15 -13 -24 -38 -45 -38c-13 0 -23 11 -23 25l-6 321l-32 -11c-2 -1 -5 -1 -7 -1c-11 0 -20 9 -20 20v42c0 8 5 15 13 18l44 16l-4 190c8 5 18 8 27 8s19 -3 27 -8l-4 -173z" />
    <glyph glyph-name="accidentalKomaFlat" unicode="&#xe443;" horiz-adv-x="267" 
d="M193 41c0 33 -22 63 -53 63c-29 0 -43 -34 -43 -67c0 -59 48 -101 93 -139c3 22 4 44 4 66v11zM235 -138c0 -14 -10 -25 -23 -25c-21 0 -30 25 -45 38c-61 52 -147 89 -147 169c0 54 37 102 89 102c33 0 66 -13 91 -34l-7 345c8 5 18 8 27 8s19 -3 27 -8z" />
    <glyph glyph-name="accidentalKomaSharp" unicode="&#xe444;" horiz-adv-x="315" 
d="M139 -189c-31 -11 -62 -22 -92 -34c-2 -1 -5 -1 -7 -1c-11 0 -20 9 -20 20v60c0 8 5 16 13 19c36 12 71 25 106 38v160c-31 -11 -61 -23 -92 -33c-2 -1 -5 -1 -7 -1c-11 0 -20 9 -20 20v60c0 8 5 15 13 18c35 13 71 26 106 39v158c0 10 8 19 18 19s19 -9 19 -19v-145
c31 11 62 22 92 34c2 1 5 1 7 1c11 0 20 -9 20 -20v-60c0 -8 -5 -16 -13 -19c-36 -12 -71 -25 -106 -38v-160c31 11 61 23 92 33c2 1 5 1 7 1c11 0 20 -9 20 -20v-60c0 -8 -5 -15 -13 -18c-35 -13 -71 -26 -106 -39v-158c0 -10 -9 -19 -19 -19s-18 9 -18 19v145z" />
    <glyph glyph-name="accidentalBakiyeSharp" unicode="&#xe445;" horiz-adv-x="315" 
d="M236 -312c0 -10 -8 -19 -18 -19s-19 9 -19 19v145l-83 -31v-158c0 -10 -9 -19 -19 -19s-18 9 -18 19v145l-32 -12c-2 -1 -5 -1 -7 -1c-11 0 -20 9 -20 20v60c0 8 5 16 13 19l46 16v160l-32 -11c-2 -1 -5 -1 -7 -1c-11 0 -20 9 -20 20v60c0 8 5 15 13 18l46 17v158
c0 10 8 19 18 19s19 -9 19 -19v-145l83 31v158c0 10 9 19 19 19s18 -9 18 -19v-145l32 12c2 1 5 1 7 1c11 0 20 -9 20 -20v-60c0 -8 -5 -16 -13 -19l-46 -16v-160l32 11c2 1 5 1 7 1c11 0 20 -9 20 -20v-60c0 -8 -5 -15 -13 -18l-46 -17v-158zM116 65v-160l83 30v160z" />
    <glyph glyph-name="accidentalKucukMucennebSharp" unicode="&#xe446;" horiz-adv-x="433" 
d="M235 -44v-29c31 11 61 23 92 33c2 1 5 1 7 1c11 0 20 -9 20 -20v-60c0 -8 -5 -15 -13 -18c-35 -13 -71 -26 -106 -39v-158c0 -10 -9 -19 -19 -19s-18 9 -18 19v145c-31 -11 -62 -22 -92 -34c-2 -1 -5 -1 -7 -1c-11 0 -20 9 -20 20v60c0 8 5 16 13 19c36 12 71 25 106 38
v29l-151 -55c-2 -1 -5 -1 -7 -1c-11 0 -20 9 -20 20v60c0 8 5 15 13 18c0 0 164 61 165 61v28c-31 -11 -61 -23 -92 -33c-2 -1 -5 -1 -7 -1c-11 0 -20 9 -20 20v60c0 8 5 15 13 18c35 13 71 26 106 39v158c0 10 8 19 18 19s19 -9 19 -19v-145c31 11 62 22 92 34c2 1 5 1 7 1
c11 0 20 -9 20 -20v-60c0 -8 -5 -16 -13 -19c-36 -12 -71 -25 -106 -38v-29l151 56c2 1 5 1 7 1c11 0 20 -9 20 -20v-62c0 -8 -5 -16 -13 -19z" />
    <glyph glyph-name="accidentalBuyukMucennebSharp" unicode="&#xe447;" horiz-adv-x="433" 
d="M295 -312c0 -10 -8 -19 -18 -19s-19 9 -19 19v145l-83 -31v-158c0 -10 -9 -19 -19 -19s-18 9 -18 19v145l-32 -12c-2 -1 -5 -1 -7 -1c-11 0 -20 9 -20 20v60c0 8 5 16 13 19l46 16v29l-91 -33c-2 -1 -5 -1 -7 -1c-11 0 -20 9 -20 20v60c0 8 5 15 13 18l105 39v28l-32 -11
c-2 -1 -5 -1 -7 -1c-11 0 -20 9 -20 20v60c0 8 5 15 13 18l46 17v158c0 10 8 19 18 19s19 -9 19 -19v-145l83 31v158c0 10 9 19 19 19s18 -9 18 -19v-145l32 12c2 1 5 1 7 1c11 0 20 -9 20 -20v-60c0 -8 -5 -16 -13 -19l-46 -16v-29l91 34c2 1 5 1 7 1c11 0 20 -9 20 -20
v-62c0 -8 -5 -16 -13 -19l-105 -38v-27l32 11c2 1 5 1 7 1c11 0 20 -9 20 -20v-60c0 -8 -5 -15 -13 -18l-46 -17v-158zM175 -67v-28l83 30v28zM175 36l83 31v28l-83 -30v-29z" />
    <glyph glyph-name="accidentalKoron" unicode="&#xe460;" horiz-adv-x="337" 
d="M68 -107c45 38 173 87 173 107s-128 69 -173 107v-214zM68 -159l6 -298c-8 -5 -18 -8 -27 -8s-19 3 -27 8l12 595c0 14 10 25 23 25c21 0 30 -20 45 -33c61 -52 217 -98 217 -130s-156 -78 -217 -130c-12 -10 -19 -22 -32 -29z" />
    <glyph glyph-name="accidentalSori" unicode="&#xe461;" horiz-adv-x="447" 
d="M236 93l178 -78c3 -1 13 -7 13 -15s-10 -14 -13 -15l-178 -78v-219c0 -10 -8 -19 -18 -19s-19 9 -19 19v203l-83 -35v-212c0 -10 -9 -19 -19 -19s-18 9 -18 19v197l-32 -14c-3 -1 -5 -1 -7 -1c-11 0 -20 9 -20 20v10c0 8 4 15 13 19l46 19v212l-46 19c-9 4 -13 11 -13 19
v10c0 11 9 20 20 20c2 0 4 0 7 -1l32 -14v153c0 10 8 19 18 19s19 -9 19 -19v-168l83 -35v247c0 10 9 19 19 19s18 -9 18 -19v-263zM236 40v-80l95 40zM199 55l-83 35v-180l83 35v110z" />
    <glyph glyph-name="accidentalXenakisOneThirdToneSharp" unicode="&#xe470;" horiz-adv-x="290" 
d="M92 -208c-4 -2 -9 -2 -13 -2c-44 0 -59 91 -59 166c0 102 18 182 65 199l59 21v158c0 10 8 19 18 19s19 -9 19 -19v-145l62 23c2 1 5 1 7 1c11 0 20 -9 20 -20v-60c0 -8 -5 -16 -13 -19l-76 -27v-161l62 23c2 1 5 1 7 1c11 0 20 -9 20 -20v-60c0 -8 -5 -16 -13 -19
l-76 -27v-158c0 -10 -9 -19 -19 -19s-18 9 -18 19v144zM144 -87v160l-59 -21c-13 -5 -28 -16 -28 -81c0 -57 10 -77 27 -77c2 0 5 0 8 1z" />
    <glyph glyph-name="accidentalXenakisTwoThirdTonesSharp" unicode="&#xe471;" horiz-adv-x="380" 
d="M181 65v-160l83 30v160zM144 -211l-52 -19c-5 -2 -9 -3 -13 -3c-44 0 -59 92 -59 167c0 102 18 182 65 199l59 21v158c0 10 8 19 18 19s19 -9 19 -19v-145l83 31v158c0 10 9 19 19 19s18 -9 18 -19v-145l32 12c2 1 5 1 7 1c11 0 20 -9 20 -20v-60c0 -8 -5 -16 -13 -19
l-46 -16v-160l32 11c2 1 5 1 7 1c11 0 20 -9 20 -20v-60c0 -8 -5 -15 -13 -18l-46 -17v-158c0 -10 -8 -19 -18 -19s-19 9 -19 19v145l-83 -31v-158c0 -10 -9 -19 -19 -19s-18 9 -18 19v145zM144 -109v160l-59 -21c-13 -5 -28 -16 -28 -81c0 -57 10 -77 27 -77c2 0 5 0 8 1z
" />
    <glyph glyph-name="accidentalQuarterToneSharpBusotti" unicode="&#xe472;" horiz-adv-x="255" 
d="M146 87v-421c0 -10 -9 -19 -19 -19s-18 9 -18 19v407l-62 -22c-2 -1 -5 -1 -7 -1c-11 0 -20 9 -20 20v60c0 8 5 15 13 18l76 28v158c0 10 8 19 18 19s19 -9 19 -19v-145l62 23c2 1 5 1 7 1c11 0 20 -9 20 -20v-60c0 -8 -5 -16 -13 -19z" />
    <glyph glyph-name="accidentalSharpOneHorizontalStroke" unicode="&#xe473;" horiz-adv-x="315" 
d="M116 65v-421c0 -10 -9 -19 -19 -19s-18 9 -18 19v407l-32 -11c-2 -1 -5 -1 -7 -1c-11 0 -20 9 -20 20v60c0 8 5 15 13 18l46 17v158c0 10 8 19 18 19s19 -9 19 -19v-145l83 31v158c0 10 9 19 19 19s18 -9 18 -19v-145l32 12c2 1 5 1 7 1c11 0 20 -9 20 -20v-60
c0 -8 -5 -16 -13 -19l-46 -16v-421c0 -10 -8 -19 -18 -19s-19 9 -19 19v407z" />
    <glyph glyph-name="accidentalThreeQuarterTonesSharpBusotti" unicode="&#xe474;" horiz-adv-x="387" 
d="M308 122v-421c0 -9 -10 -19 -19 -19s-18 8 -18 19v407l-59 -21v-421c0 -10 -9 -19 -19 -19s-18 9 -18 19v407l-59 -21v-421c0 -9 -10 -19 -19 -19s-18 8 -18 19v407l-32 -11c-1 -1 -4 -1 -7 -1c-10 0 -20 10 -20 20v60c0 9 4 15 13 18l46 17v158c0 11 9 19 18 19
s19 -10 19 -19v-145l59 22v158c0 10 8 19 18 19s19 -9 19 -19v-145l59 22v158c0 11 9 19 18 19s19 -10 19 -19v-145l32 12c1 1 4 1 7 1c10 0 20 -10 20 -20v-60c0 -9 -4 -16 -13 -19z" />
    <glyph glyph-name="accidentalQuarterToneSharpWiggle" unicode="&#xe475;" horiz-adv-x="643" 
d="M444 65v-160l83 30v160zM564 -312c0 -10 -8 -19 -18 -19s-19 9 -19 19v145l-83 -31v-158c0 -10 -9 -19 -19 -19s-18 9 -18 19v145l-32 -12c-2 -1 -5 -1 -7 -1c-11 0 -20 9 -20 20v60c0 8 5 16 13 19l46 16v160l-32 -11c-2 -1 -5 -1 -7 -1c-11 0 -20 9 -20 20v60
c0 8 5 15 13 18l46 17v97c-18 -20 -47 -32 -78 -32c-49 0 -88 17 -123 50c-37 35 -63 62 -118 62c-25 0 -45 -20 -45 -44c0 -21 -4 -25 -11 -25s-12 4 -12 25c0 56 45 88 101 88c49 0 88 -23 123 -56s62 -57 118 -57c25 0 45 17 45 50c0 10 8 19 18 19s19 -9 19 -19v-145
l83 31v158c0 10 9 19 19 19s18 -9 18 -19v-145l32 12c2 1 5 1 7 1c11 0 20 -9 20 -20v-60c0 -8 -5 -16 -13 -19l-46 -16v-160l32 11c2 1 5 1 7 1c11 0 20 -9 20 -20v-60c0 -8 -5 -15 -13 -18l-46 -17v-158z" />
    <glyph glyph-name="accidentalTavenerSharp" unicode="&#xe476;" horiz-adv-x="624" 
d="M391 -312c0 -10 -8 -19 -18 -19s-19 9 -19 19v145l-83 -31v-158c0 -10 -9 -19 -19 -19s-18 9 -18 19v145l-32 -12c-2 -1 -5 -1 -7 -1c-11 0 -20 9 -20 20v35l-122 -122c-7 -8 -28 -9 -41 -9c-2 0 -12 3 -12 13c0 1 0 5 4 9l230 230v99l-32 -11c-2 -1 -5 -1 -7 -1
c-11 0 -20 9 -20 20v60c0 8 5 15 13 18l46 17v158c0 10 8 19 18 19s19 -9 19 -19v-145l83 31v158c0 10 9 19 19 19s18 -9 18 -19v-145l32 12c2 1 5 1 7 1c11 0 20 -9 20 -20v-36l122 122c8 8 27 10 40 10c2 0 12 -3 12 -13c0 -1 0 -6 -4 -10l-229 -229v-99l32 11
c2 1 5 1 7 1c11 0 20 -9 20 -20v-60c0 -8 -5 -15 -13 -18l-46 -17v-158zM271 -11l83 83v23l-83 -30v-76zM271 -73v-22l83 30v75z" />
    <glyph glyph-name="accidentalTavenerFlat" unicode="&#xe477;" horiz-adv-x="624" 
d="M317 41l-1 -66v-11c0 -22 1 -44 4 -66c45 38 93 80 93 139c0 33 -14 67 -43 67c-31 0 -53 -30 -53 -63zM300 112c25 21 58 34 91 34c52 0 89 -48 89 -102c0 -80 -86 -117 -147 -169c-15 -13 -24 -38 -45 -38c-13 0 -23 11 -23 25l-4 211l-209 -209c-8 -8 -27 -9 -40 -9
c-2 0 -12 3 -12 13c0 1 0 5 4 9l256 256l-7 324c8 5 18 8 27 8s19 -3 27 -8l-6 -283l271 271c8 8 27 10 40 10c2 0 12 -3 12 -13c0 -1 0 -6 -4 -10z" />
    <glyph glyph-name="accidentalQuarterToneFlatPenderecki" unicode="&#xe478;" horiz-adv-x="267" 
d="M32 -138l-12 595c8 5 18 8 27 8s19 -3 27 -8l-7 -345c25 21 58 34 91 34c52 0 89 -48 89 -102c0 -80 -86 -117 -147 -169c-15 -13 -24 -38 -45 -38c-13 0 -23 11 -23 25z" />
    <glyph glyph-name="accidentalCommaSlashUp" unicode="&#xe479;" horiz-adv-x="329" 
d="M30 -98c0 15 4 29 12 36l229 196c3 2 6 3 8 3c13 0 20 -23 20 -39c0 -15 -4 -29 -12 -36l-229 -196c-3 -2 -5 -3 -8 -3c-13 0 -20 24 -20 39z" />
    <glyph glyph-name="accidentalCommaSlashDown" unicode="&#xe47a;" horiz-adv-x="329" 
d="M30 98c0 15 7 39 20 39c3 0 5 -1 8 -3l229 -196c8 -7 12 -21 12 -36c0 -16 -7 -39 -20 -39c-2 0 -5 1 -8 3l-229 196c-8 7 -12 21 -12 36z" />
    <glyph glyph-name="accidentalWilsonPlus" unicode="&#xe47b;" horiz-adv-x="329" 
d="M30 -101c0 25 4 47 12 54l102 98v141c0 11 9 20 20 20s20 -9 20 -20v-103l87 84c3 3 6 4 8 3c13 -6 20 -48 20 -75c0 -25 -4 -47 -12 -54l-103 -99v-139c0 -11 -9 -20 -20 -20s-20 9 -20 20v101l-86 -83c-3 -3 -5 -4 -8 -3c-13 6 -20 50 -20 75z" />
    <glyph glyph-name="accidentalWilsonMinus" unicode="&#xe47c;" horiz-adv-x="329" 
d="M30 101c0 25 7 69 20 75c3 1 5 0 8 -3l229 -220c8 -7 12 -29 12 -54c0 -27 -7 -69 -20 -75c-2 -1 -5 0 -8 3l-229 220c-8 7 -12 29 -12 54z" />
    <glyph glyph-name="accidentalLargeDoubleSharp" unicode="&#xe47d;" horiz-adv-x="418" 
d="M247 0c26 -26 67 -39 124 -39c9 0 14 -5 14 -14l13 -122c1 -3 0 -7 -4 -9c-2 -4 -6 -5 -9 -5h-1l-122 13c-9 1 -14 6 -14 14c0 57 -13 98 -39 124c-26 -26 -39 -67 -39 -124c0 -8 -4 -13 -13 -14l-123 -13h-1c-3 0 -7 1 -9 5c-4 2 -5 6 -4 9l13 122c0 9 5 14 14 14
c57 0 98 13 124 39c-26 26 -67 39 -124 39c-9 0 -14 5 -14 14l-13 122c-1 3 0 7 4 9c2 4 6 5 9 5h1l123 -13c9 -1 13 -6 13 -14c0 -57 13 -98 39 -124c26 26 39 67 39 124c0 8 5 13 14 14l122 13h1c3 0 7 -1 9 -5c4 -2 5 -6 4 -9l-13 -122c0 -9 -5 -14 -14 -14
c-57 0 -98 -13 -124 -39z" />
    <glyph glyph-name="accidentalQuarterToneSharp4" unicode="&#xe47e;" horiz-adv-x="435" 
d="M236 65v-160l83 30v160zM210 587c11 0 23 2 39 7c8 2 11 -8 7 -13l-202 -238h145v59c0 28 -20 30 -20 30v10c20 11 35 38 41 51c2 3 4 4 7 4c4 0 9 -3 9 -10v-144h42c8 0 12 -10 12 -15s-4 -17 -12 -17h-42v-144l83 31v158c0 10 9 19 19 19s18 -9 18 -19v-145l32 12
c2 1 5 1 7 1c11 0 20 -9 20 -20v-60c0 -8 -5 -16 -13 -19l-46 -16v-160l32 11c2 1 5 1 7 1c11 0 20 -9 20 -20v-60c0 -8 -5 -15 -13 -18l-46 -17v-158c0 -10 -8 -19 -18 -19s-19 9 -19 19v145l-83 -31v-158c0 -10 -9 -19 -19 -19s-18 9 -18 19v145l-32 -12
c-2 -1 -5 -1 -7 -1c-11 0 -20 9 -20 20v60c0 8 5 16 13 19l46 16v160l-32 -11c-2 -1 -5 -1 -7 -1c-11 0 -20 9 -20 20v60c0 8 5 15 13 18l46 17v157h-175c-17 0 -24 11 -24 18c0 2 1 3 2 4c60 70 163 196 163 248c0 7 5 12 10 12h2c17 -5 22 -6 33 -6z" />
    <glyph glyph-name="accidentalQuarterToneFlat4" unicode="&#xe47f;" horiz-adv-x="435" 
d="M242 41l-1 -66v-11c0 -22 1 -44 4 -66c45 38 93 80 93 139c0 33 -14 67 -43 67c-31 0 -53 -30 -53 -63zM210 587c11 0 23 2 39 7c8 2 11 -8 7 -13l-202 -238h145v59c0 28 -20 29 -20 30v10c20 11 35 38 41 51c2 3 4 4 7 4c4 0 9 -3 9 -10v-144h42c8 0 12 -10 12 -15
s-4 -17 -12 -17h-42l-1 -199c25 21 58 34 91 34c52 0 89 -48 89 -102c0 -80 -86 -117 -147 -169c-15 -13 -24 -38 -45 -38c-13 0 -23 11 -23 25c0 148 -1 295 -1 443v6h-175c-17 0 -24 11 -24 18c0 2 1 3 2 4c60 70 163 196 163 248c0 7 5 12 10 12h2c17 -5 22 -6 33 -6z
" />
    <glyph glyph-name="accidentalQuarterToneFlatFilledReversed" unicode="&#xe480;" horiz-adv-x="267" 
d="M235 -138c0 -14 -10 -25 -23 -25c-21 0 -30 25 -45 38c-61 52 -147 89 -147 169c0 54 37 102 89 102c33 0 66 -13 91 -34l-7 345c8 5 18 8 27 8s19 -3 27 -8z" />
    <glyph glyph-name="accidentalSharpReversed" unicode="&#xe481;" horiz-adv-x="315" 
d="M79 -312v158l-46 17c-8 3 -13 10 -13 18v60c0 11 9 20 20 20c2 0 5 0 7 -1l32 -11v160l-46 16c-8 3 -13 11 -13 19v60c0 11 9 20 20 20c2 0 5 0 7 -1l32 -12v145c0 10 8 19 18 19s19 -9 19 -19v-158l83 -31v145c0 10 9 19 19 19s18 -9 18 -19v-158l46 -17
c8 -3 13 -10 13 -18v-60c0 -11 -9 -20 -20 -20c-2 0 -5 0 -7 1l-32 11v-160l46 -16c8 -3 13 -11 13 -19v-60c0 -11 -9 -20 -20 -20c-2 0 -5 0 -7 1l-32 12v-145c0 -10 -8 -19 -18 -19s-19 9 -19 19v158l-83 31v-145c0 -10 -9 -19 -19 -19s-18 9 -18 19zM199 65l-83 30v-160
l83 -30v160z" />
    <glyph glyph-name="accidentalNaturalReversed" unicode="&#xe482;" horiz-adv-x="232" 
d="M202 375l-8 -570c0 -10 -8 -17 -18 -17h-3l-106 20l3 -183c-8 -4 -16 -7 -25 -7s-17 3 -25 7l7 570c0 10 8 17 18 17h3l106 -20l-3 183c8 4 16 7 25 7s18 -3 26 -7zM158 -112l-3 207l-92 17l3 -207z" />
    <glyph glyph-name="accidentalDoubleFlatReversed" unicode="&#xe483;" horiz-adv-x="429" 
d="M192 41c0 33 -19 63 -49 63c-29 0 -40 -34 -40 -67c0 -57 43 -102 87 -139c3 22 4 44 4 66c0 4 -1 7 -1 11zM235 -138c0 -14 -11 -25 -24 -25c-21 0 -29 25 -44 38c-61 52 -147 90 -147 170c0 54 39 101 92 101c32 0 63 -13 87 -34l-6 345c8 5 18 8 27 8s19 -3 27 -8
l-7 -332c14 13 32 21 52 21c27 0 53 -13 70 -34l-7 345c8 5 18 8 27 8s19 -3 27 -8l-12 -595c0 -14 -10 -25 -23 -25c-20 0 -26 25 -39 38c-32 31 -71 59 -98 93zM365 -26l-2 67c0 31 -12 63 -40 63c-27 0 -33 -35 -33 -67c0 -55 32 -103 71 -141c3 23 4 45 4 68v10z" />
    <glyph glyph-name="accidentalFlatTurned" unicode="&#xe484;" horiz-adv-x="267" 
d="M193 -41l1 66v11c0 22 -1 44 -4 66c-45 -38 -93 -80 -93 -139c0 -33 14 -67 43 -67c31 0 53 30 53 63zM235 138l12 -595c-8 -5 -18 -8 -27 -8s-19 3 -27 8l7 345c-25 -21 -58 -34 -91 -34c-52 0 -89 48 -89 102c0 80 86 117 147 169c15 13 24 38 45 38
c13 0 23 -11 23 -25z" />
    <glyph glyph-name="accidentalDoubleFlatTurned" unicode="&#xe485;" horiz-adv-x="429" 
d="M192 -41l1 66c0 4 1 7 1 11c0 22 -1 44 -4 66c-44 -37 -87 -82 -87 -139c0 -33 11 -67 40 -67c30 0 49 30 49 63zM235 138l2 -106c27 34 66 62 98 93c13 13 19 38 39 38c13 0 23 -11 23 -25l12 -595c-8 -5 -18 -8 -27 -8s-19 3 -27 8l7 345c-17 -21 -43 -34 -70 -34
c-20 0 -38 8 -52 21l7 -332c-8 -5 -18 -8 -27 -8s-19 3 -27 8l6 345c-24 -21 -55 -34 -87 -34c-53 0 -92 47 -92 101c0 80 86 118 147 170c15 13 23 38 44 38c13 0 24 -11 24 -25zM365 26v10c0 23 -1 45 -4 68c-39 -38 -71 -86 -71 -141c0 -32 6 -67 33 -67
c28 0 40 32 40 63z" />
    <glyph glyph-name="accidentalThreeQuarterTonesFlatGrisey" unicode="&#xe486;" horiz-adv-x="265" 
d="M61 41v-77c0 -22 3 -44 14 -66c5 4 9 8 14 12v181c-16 -12 -28 -30 -28 -50zM69 457l-8 -345c8 7 18 13 28 18v327c5 5 9 8 16 8s10 -3 15 -8v-316c12 3 24 5 36 5c52 0 89 -48 89 -102c0 -80 -86 -117 -147 -169c-15 -13 -24 -38 -45 -38c-13 0 -23 11 -23 25l-10 595
c8 5 16 8 25 8s16 -3 24 -8zM120 -61c27 28 48 59 48 98c0 33 -14 67 -43 67h-5v-165z" />
    <glyph glyph-name="accidentalThreeQuarterTonesFlatTartini" unicode="&#xe487;" horiz-adv-x="364" 
d="M164 112c24 22 58 34 91 34c52 0 89 -48 89 -102c0 -94 -78 -210 -136 -210c-22 0 -53 1 -68 27c-9 16 -20 28 -27 28c-21 0 -43 -31 -61 -49c-3 -2 -7 -5 -12 -5s-10 2 -12 5c-4 6 -8 15 -8 55v529c0 10 4 19 20 19s20 -9 20 -19v-383c0 -13 0 -115 14 -115
c28 0 44 56 64 56c6 0 17 -30 22 -55c6 -27 18 -38 44 -38c29 0 63 60 63 148c0 33 -14 67 -43 67c-32 0 -70 -46 -84 -46c-3 0 -4 2 -4 5c0 16 14 37 28 49z" />
    <glyph glyph-name="accidentalQuarterToneFlatVanBlankenburg" unicode="&#xe488;" horiz-adv-x="257" 
d="M237 74c0 -2 -2 -4 -3 -5c-76 -76 -130 -148 -182 -229c-2 -3 -7 -5 -12 -5s-10 2 -12 5c-4 6 -8 15 -8 55v529c0 10 4 19 20 19s20 -9 20 -19v-383c0 -13 0 -38 23 -38c27 0 71 90 118 90c10 0 36 -12 36 -19z" />
    </font>
</defs>
</svg>
